<svg width="654" height="461" viewBox="0 0 654 461" fill="none" xmlns="http://www.w3.org/2000/svg">
<path d="M82.608 239.581C127.139 239.581 159.192 210.755 159.192 159.77V149.229H74.8635V179.777H117.888C112.51 194.62 99.6029 201.289 82.608 201.289C60.4501 201.289 42.5947 183.649 42.5947 161.706C42.5947 139.764 60.4501 122.123 82.608 122.123C96.1609 122.123 108.423 129.007 115.522 139.333L147.361 118.036C133.162 97.3839 109.499 83.831 82.608 83.831C39.3679 83.831 4.3025 118.466 4.3025 161.706C4.3025 204.946 39.3679 239.581 82.608 239.581ZM173.125 237H207.545V190.533C207.545 161.491 223.895 156.758 238.953 158.049V125.565C222.819 125.565 213.138 131.589 207.545 142.345V127.932H173.125V237ZM308.914 239.581C333.008 239.581 351.509 227.319 360.114 210.97L330.212 197.202C326.77 201.72 319.671 206.452 308.914 206.452C297.083 206.452 290.199 200.644 286.757 193.975H364.202C369.795 152.241 337.741 125.565 305.903 125.565C273.849 125.565 247.604 150.305 247.604 182.573C247.604 214.627 271.052 239.581 308.914 239.581ZM286.972 171.172C290.414 164.288 296.867 158.695 305.903 158.695C315.583 158.695 322.682 163.858 326.124 171.172H286.972ZM387.748 288.2H424.534L491.868 127.932H453.576L428.836 188.167L404.097 127.932H365.805L410.121 233.558L387.748 288.2Z" fill="#FCFCFC"/>
<path d="M179.106 396.33H219.979V308.989L244.719 347.712H263.65L288.389 308.989V396.33H329.263V245.743H287.959L254.184 298.448L220.41 245.743H179.106V396.33ZM182.548 393.103V249.185H218.473L254.184 304.687L289.68 249.185H325.821V393.103H291.831V297.588L261.714 344.27H246.44L216.537 297.588V393.103H182.548ZM398.071 398.696C409.257 398.696 418.293 395.254 425.177 388.586V396.33H462.178V286.401H425.177V340.828C425.177 354.811 417.647 363.416 405.6 363.416C391.402 363.416 386.454 351.584 386.454 341.258V286.401H349.238V341.258C349.238 369.009 362.145 398.696 398.071 398.696ZM352.68 341.258V289.628H383.012V341.258C383.012 353.95 389.896 366.858 405.6 366.858C419.583 366.858 428.404 356.747 428.404 340.828V289.628H458.736V392.888H428.404V379.335L425.392 383.207C419.153 391.167 409.903 395.254 398.071 395.254C369.674 395.254 352.68 375.033 352.68 341.258ZM479.889 396.33H516.89V236.492H479.889V396.33ZM483.331 393.103V239.719H513.664V393.103H483.331ZM590.893 398.912C619.935 398.912 635.209 384.283 643.169 372.021L644.244 370.3L613.266 353.95L612.406 355.241C610.255 358.038 603.801 364.922 591.109 364.922C581.428 364.922 574.114 360.834 570.457 353.735H647.471L647.686 352.229C650.268 327.92 641.233 312.216 633.273 303.396C622.302 291.134 606.167 284.035 589.172 284.035C556.258 284.035 530.443 309.204 530.443 341.473C530.443 374.602 556.043 398.912 590.893 398.912ZM533.885 341.473C533.885 311.141 558.194 287.477 589.172 287.477C605.092 287.477 620.366 293.931 630.692 305.547C638.221 313.722 646.396 328.135 644.46 350.293H565.294L566.154 352.66C570.026 362.771 578.846 368.149 591.109 368.149C604.016 368.149 611.115 361.91 614.127 358.253L639.297 371.591C631.552 382.777 617.139 395.47 590.893 395.47C557.979 395.47 533.885 372.666 533.885 341.473ZM565.939 331.362H613.051L611.976 328.996C608.319 319.961 599.714 314.583 589.172 314.583C579.492 314.583 571.317 319.961 567.015 328.996L565.939 331.362ZM571.317 327.92C575.189 321.682 581.643 318.025 589.172 318.025C597.347 318.025 604.016 321.682 607.673 327.92H571.317Z" fill="#87C754"/>
</svg>
