<svg width="104" height="73" viewBox="0 0 104 73" fill="none" xmlns="http://www.w3.org/2000/svg">
<path d="M13.0101 37.4066C20.0233 37.4066 25.0715 32.8666 25.0715 24.8369V23.1768H11.7904V27.9878H18.5665C17.7195 30.3256 15.6866 31.3758 13.0101 31.3758C9.5204 31.3758 6.70832 28.5977 6.70832 25.1419C6.70832 21.686 9.5204 18.9079 13.0101 18.9079C15.1445 18.9079 17.0757 19.992 18.1938 21.6183L23.2081 18.2641C20.972 15.0116 17.2451 12.8771 13.0101 12.8771C6.20012 12.8771 0.677608 18.3319 0.677608 25.1419C0.677608 31.9518 6.20012 37.4066 13.0101 37.4066ZM27.2658 37H32.6867V29.6818C32.6867 25.108 35.2616 24.3626 37.6332 24.5659V19.4499C35.0922 19.4499 33.5676 20.3986 32.6867 22.0926V19.8226H27.2658V37ZM48.6515 37.4066C52.4461 37.4066 55.3598 35.4754 56.715 32.9005L52.0057 30.7321C51.4636 31.4436 50.3455 32.189 48.6515 32.189C46.7881 32.189 45.7039 31.2742 45.1618 30.2239H57.3588C58.2397 23.6511 53.1915 19.4499 48.1772 19.4499C43.129 19.4499 38.9956 23.3462 38.9956 28.4283C38.9956 33.4764 42.6885 37.4066 48.6515 37.4066ZM45.1957 26.6326C45.7378 25.5484 46.7542 24.6675 48.1772 24.6675C49.7018 24.6675 50.8198 25.4807 51.3619 26.6326H45.1957ZM61.0671 45.0635H66.8606L77.4652 19.8226H71.4345L67.5382 29.3091L63.642 19.8226H57.6113L64.5906 36.4579L61.0671 45.0635Z" fill="#FCFCFC"/>
<path d="M28.2077 62.0933H34.645V48.3378L38.5412 54.4363H41.5227L45.4189 48.3378V62.0933H51.8562V38.377H45.3512L40.032 46.6777L34.7127 38.377H28.2077V62.0933ZM28.7498 61.5851V38.9191H34.4078L40.032 47.6602L45.6222 38.9191H51.3141V61.5851H45.961V46.5421L41.2178 53.8942H38.8123L34.1029 46.5421V61.5851H28.7498ZM62.6929 62.4659C64.4547 62.4659 65.8777 61.9239 66.9619 60.8736V62.0933H72.7893V44.7804H66.9619V53.3521C66.9619 55.5543 65.7761 56.9096 63.8787 56.9096C61.6426 56.9096 60.8634 55.0461 60.8634 53.4199V44.7804H55.0021V53.4199C55.0021 57.7904 57.0349 62.4659 62.6929 62.4659ZM55.5442 53.4199V45.2886H60.3213V53.4199C60.3213 55.4188 61.4055 57.4516 63.8787 57.4516C66.081 57.4516 67.4701 55.8593 67.4701 53.3521V45.2886H72.2472V61.5512H67.4701V59.4167L66.9957 60.0266C66.0132 61.2801 64.5564 61.9239 62.6929 61.9239C58.2207 61.9239 55.5442 58.7391 55.5442 53.4199ZM75.5786 62.0933H81.406V36.9201H75.5786V62.0933ZM76.1207 61.5851V37.4283H80.8978V61.5851H76.1207ZM93.0609 62.4998C97.6348 62.4998 100.04 60.196 101.294 58.2648L101.463 57.9937L96.5845 55.4188L96.4489 55.6221C96.1101 56.0625 95.0937 57.1467 93.0948 57.1467C91.5702 57.1467 90.4182 56.503 89.8423 55.3849H101.971L102.005 55.1478C102.412 51.3193 100.989 48.846 99.7353 47.4569C98.0074 45.5257 95.4664 44.4077 92.7899 44.4077C87.6062 44.4077 83.5405 48.3717 83.5405 53.4538C83.5405 58.6713 87.5723 62.4998 93.0609 62.4998ZM84.0826 53.4538C84.0826 48.6766 87.9111 44.9498 92.7899 44.9498C95.297 44.9498 97.7025 45.9662 99.3288 47.7957C100.515 49.0832 101.802 51.3532 101.497 54.8429H89.0291L89.1647 55.2155C89.7745 56.8079 91.1636 57.6549 93.0948 57.6549C95.1276 57.6549 96.2457 56.6724 96.72 56.0964L100.684 58.197C99.4643 59.9588 97.1943 61.9577 93.0609 61.9577C87.8772 61.9577 84.0826 58.3664 84.0826 53.4538ZM89.1308 51.8614H96.5506L96.3812 51.4887C95.8052 50.0657 94.45 49.2187 92.7899 49.2187C91.2652 49.2187 89.9778 50.0657 89.3002 51.4887L89.1308 51.8614ZM89.9778 51.3193C90.5876 50.3368 91.604 49.7608 92.7899 49.7608C94.0773 49.7608 95.1276 50.3368 95.7036 51.3193H89.9778Z" fill="#FCFCFC"/>
</svg>
