<svg width="633" height="74" viewBox="0 0 633 74" fill="none" xmlns="http://www.w3.org/2000/svg">
<path d="M0.83405 72H18.0433V29.9438L30.7085 48.6999H38.5396L51.1082 29.9438V72H68.3174V4.3233H50.5281L34.5757 28.2035L18.6234 4.3233H0.83405V72ZM100.014 73.1602C105.332 73.1602 109.876 71.5166 113.55 68.8095V72H129.019V22.9827H113.55V26.2699C109.876 23.5628 105.332 21.9192 100.014 21.9192C85.1255 21.9192 75.5541 33.7143 75.5541 47.5397C75.5541 61.2684 85.1255 73.1602 100.014 73.1602ZM91.1198 47.5397C91.1198 41.6422 95.8571 36.8081 101.755 36.8081C107.652 36.8081 112.39 41.6422 112.39 47.5397C112.39 53.4372 107.652 58.1746 101.755 58.1746C95.8571 58.1746 91.1198 53.4372 91.1198 47.5397ZM137.918 72H153.484V22.9827H137.918V72ZM137.241 8.67394C137.241 13.4113 141.012 17.1819 145.749 17.1819C150.39 17.1819 154.16 13.4113 154.16 8.67394C154.16 4.03326 150.39 0.262694 145.749 0.262694C141.012 0.262694 137.241 4.03326 137.241 8.67394ZM162.367 72H177.836V47.7331C177.836 40.482 181.896 36.5181 187.601 36.5181C194.175 36.5181 197.172 41.7388 197.172 47.5397V72H212.738V47.5397C212.738 33.811 206.163 21.9192 191.081 21.9192C184.99 21.9192 180.736 24.0462 177.836 27.8168V22.9827H162.367V72ZM244.117 72.7734C250.981 72.7734 256.298 69.6797 259.392 66.0058L250.594 55.7576C250.208 56.241 248.564 58.1746 245.857 58.1746C243.44 58.1746 241.603 56.7244 241.603 53.824V36.8081H254.848V22.9827H241.603V12.0578H226.134V22.9827H218.109V36.8081H226.134V53.824C226.134 65.5224 230.775 72.7734 244.117 72.7734ZM285.257 73.1602C290.574 73.1602 295.118 71.5166 298.792 68.8095V72H314.261V22.9827H298.792V26.2699C295.118 23.5628 290.574 21.9192 285.257 21.9192C270.368 21.9192 260.796 33.7143 260.796 47.5397C260.796 61.2684 270.368 73.1602 285.257 73.1602ZM276.362 47.5397C276.362 41.6422 281.099 36.8081 286.997 36.8081C292.895 36.8081 297.632 41.6422 297.632 47.5397C297.632 53.4372 292.895 58.1746 286.997 58.1746C281.099 58.1746 276.362 53.4372 276.362 47.5397ZM323.16 72H338.726V22.9827H323.16V72ZM322.483 8.67394C322.483 13.4113 326.254 17.1819 330.991 17.1819C335.632 17.1819 339.403 13.4113 339.403 8.67394C339.403 4.03326 335.632 0.262694 330.991 0.262694C326.254 0.262694 322.483 4.03326 322.483 8.67394ZM347.609 72H363.078V47.7331C363.078 40.482 367.139 36.5181 372.843 36.5181C379.417 36.5181 382.414 41.7388 382.414 47.5397V72H397.98V47.5397C397.98 33.811 391.406 21.9192 376.323 21.9192C370.233 21.9192 365.979 24.0462 363.078 27.8168V22.9827H347.609V72ZM451.704 72H468.913V42.4156L494.533 4.3233H475.294L460.308 27.0433L445.226 4.3233H426.083L451.704 42.4156V72ZM510.572 73.1602C524.977 73.1602 536.772 61.9452 536.772 47.5397C536.772 33.1342 524.977 21.9192 510.572 21.9192C496.166 21.9192 484.371 33.1342 484.371 47.5397C484.371 61.9452 496.166 73.1602 510.572 73.1602ZM499.937 47.5397C499.937 41.6422 504.674 36.8081 510.572 36.8081C516.469 36.8081 521.207 41.6422 521.207 47.5397C521.207 53.4372 516.469 58.1746 510.572 58.1746C504.674 58.1746 499.937 53.4372 499.937 47.5397ZM565.177 73.1602C571.171 73.1602 575.522 70.9365 578.422 67.2626V72H593.891V22.9827H578.422V47.3463C578.422 54.5007 574.362 58.4647 568.657 58.4647C562.083 58.4647 558.989 53.2439 558.989 47.5397V22.9827H543.52V47.5397C543.52 61.2684 549.998 73.1602 565.177 73.1602ZM602.624 72H618.093V51.1169C618.093 38.065 625.441 35.938 632.209 36.5181V21.9192C624.957 21.9192 620.607 24.6263 618.093 29.4604V22.9827H602.624V72Z" fill="#F7F7FC"/>
</svg>
