<svg width="482" height="95" viewBox="0 0 482 95" fill="none" xmlns="http://www.w3.org/2000/svg">
<path d="M24.84 33.216L23.4511 36.3064L23.4612 36.3109L23.4714 36.3154L24.84 33.216ZM29.448 20.448L26.091 20.9058L26.5426 24.2178L29.8604 23.8109L29.448 20.448ZM39.624 19.2L40.0364 22.5629L43.3483 22.1567L42.9928 18.8391L39.624 19.2ZM20.616 42.528L19.2436 45.6257L19.2502 45.6287L20.616 42.528ZM10.536 54.24L13.8944 53.7922L13.4635 50.5607L10.2178 50.8669L10.536 54.24ZM0.36 55.2L0.0417793 51.8269L-3.26809 52.1391L-3.01856 55.4543L0.36 55.2ZM21.576 76.5401C28.3725 76.5401 34.5849 74.396 39.1451 70.3615C43.7431 66.2935 46.4681 60.4647 46.4681 53.568H39.6919C39.6919 58.5753 37.7609 62.5385 34.6549 65.2865C31.5111 68.068 26.9715 69.7639 21.576 69.7639V76.5401ZM46.4681 53.568C46.4681 45.4879 43.2547 40.2625 38.857 36.7211C34.7646 33.4256 29.5442 31.5895 26.2086 30.1166L23.4714 36.3154C27.5278 38.1065 31.4274 39.4384 34.607 41.9989C37.4813 44.3135 39.6919 47.6321 39.6919 53.568H46.4681ZM26.2289 30.1256C21.8342 28.1505 19.2509 26.8768 17.6868 25.5468C16.981 24.9467 16.5896 24.4159 16.3515 23.8954C16.1112 23.3702 15.9401 22.6653 15.9401 21.6H9.16388C9.16388 23.4147 9.46079 25.1217 10.1895 26.7146C10.9204 28.3121 11.999 29.6053 13.2972 30.7092C15.7411 32.7872 19.3018 34.4415 23.4511 36.3064L26.2289 30.1256ZM15.9401 21.6C15.9401 20.3223 16.4074 19.3111 17.156 18.6054C17.9092 17.8955 19.1521 17.3081 21 17.3081V10.5319C17.6639 10.5319 14.6828 11.6245 12.508 13.6745C10.3286 15.7289 9.16388 18.5577 9.16388 21.6H15.9401ZM21 17.3081C22.8615 17.3081 24.0589 18.0024 24.8442 18.7878C25.7284 19.6719 26.0543 20.6373 26.091 20.9058L32.8051 19.9902C32.5537 18.1467 31.4876 15.8481 29.6358 13.9962C27.6851 12.0456 24.8025 10.5319 21 10.5319V17.3081ZM29.8604 23.8109L40.0364 22.5629L39.2116 15.8371L29.0356 17.0851L29.8604 23.8109ZM42.9928 18.8391C41.9397 9.00997 33.0554 0.25988 21 0.25988V7.03612C29.6806 7.03612 35.5803 13.262 36.2552 19.5609L42.9928 18.8391ZM21 0.25988C8.87885 0.25988 -0.91612 9.43687 -0.91612 21.6H5.86012C5.86012 13.4111 12.3851 7.03612 21 7.03612V0.25988ZM-0.91612 21.6C-0.91612 29.8039 2.1688 35.145 6.5216 38.799C10.5856 42.2106 15.7766 44.0897 19.2436 45.6257L21.9884 39.4303C17.8714 37.6063 13.9904 36.2214 10.8784 33.609C8.0552 31.239 5.86012 27.7961 5.86012 21.6H-0.91612ZM19.2502 45.6287C21.3527 46.5547 23.0035 47.2431 24.4737 47.9301C25.9238 48.6076 26.9255 49.163 27.6448 49.7068C28.3214 50.2182 28.6779 50.6677 28.8991 51.1306C29.1292 51.612 29.3239 52.3417 29.3239 53.568H36.1001C36.1001 51.6263 35.7908 49.836 35.0129 48.2084C34.2261 46.5623 33.0706 45.3138 31.7312 44.3012C30.4345 43.321 28.9162 42.5264 27.3423 41.7909C25.7885 41.0649 23.9113 40.2773 21.9818 39.4273L19.2502 45.6287ZM29.3239 53.568C29.3239 55.4577 28.6551 56.8089 27.5697 57.7373C26.4296 58.7124 24.5016 59.4919 21.576 59.4919V66.2681C25.6584 66.2681 29.2984 65.1756 31.9743 62.8867C34.7049 60.5511 36.1001 57.2463 36.1001 53.568H29.3239ZM21.576 59.4919C17.9962 59.4919 16.2581 58.1589 15.3177 56.9835C14.2516 55.6509 13.9427 54.1544 13.8944 53.7922L7.1776 54.6878C7.32131 55.7656 7.92436 58.5891 10.0263 61.2165C12.2539 64.0011 15.9398 66.2681 21.576 66.2681V59.4919ZM10.2178 50.8669L0.0417793 51.8269L0.678221 58.5731L10.8542 57.6131L10.2178 50.8669ZM-3.01856 55.4543C-2.21891 66.0783 6.38858 76.5401 21.576 76.5401V69.7639C10.0754 69.7639 4.28291 62.1777 3.73856 54.9457L-3.01856 55.4543ZM97.8623 61.248L100.754 63.0132L102.693 59.8367L99.3491 58.2035L97.8623 61.248ZM89.6063 57.216L91.0931 54.1715L88.6129 52.9603L86.9253 55.1443L89.6063 57.216ZM59.7503 51.648V48.2599H55.3521L56.4743 52.5125L59.7503 51.648ZM99.3983 51.648V55.0361H102.521L102.775 51.9237L99.3983 51.648ZM59.8462 43.104L56.5649 42.2602L55.4767 46.4921H59.8462V43.104ZM89.5103 43.104V46.4921H93.728L92.8187 42.3736L89.5103 43.104ZM75.6862 76.4441C85.9551 76.4441 95.563 71.5179 100.754 63.0132L94.9703 59.4828C91.1375 65.7621 83.8494 69.6679 75.6862 69.6679V76.4441ZM99.3491 58.2035L91.0931 54.1715L88.1194 60.2605L96.3754 64.2925L99.3491 58.2035ZM86.9253 55.1443C84.3919 58.4229 80.3596 60.2599 75.6862 60.2599V67.0361C82.1489 67.0361 88.2926 64.4571 92.2872 59.2877L86.9253 55.1443ZM75.6862 60.2599C69.4374 60.2599 64.4549 56.1974 63.0262 50.7835L56.4743 52.5125C58.6936 60.9226 66.3831 67.0361 75.6862 67.0361V60.2599ZM59.7503 55.0361H99.3983V48.2599H59.7503V55.0361ZM102.775 51.9237C103.611 41.6831 100.635 33.344 95.2575 27.551C89.911 21.7911 82.4094 18.7879 74.6302 18.7879V25.5641C80.6751 25.5641 86.3255 27.8889 90.291 32.161C94.2258 36.4 96.7214 42.7969 96.0214 51.3723L102.775 51.9237ZM74.6302 18.7879C58.5462 18.7879 46.3781 31.7353 46.3781 47.616H53.1544C53.1544 35.2727 62.4903 25.5641 74.6302 25.5641V18.7879ZM46.3781 47.616C46.3781 63.6568 59.4732 76.4441 75.6862 76.4441V69.6679C63.0993 69.6679 53.1544 59.7992 53.1544 47.616H46.3781ZM63.1276 43.9478C64.4907 38.6469 68.864 34.9721 74.6302 34.9721V28.1959C65.6125 28.1959 58.6578 34.1211 56.5649 42.2602L63.1276 43.9478ZM74.6302 34.9721C77.7501 34.9721 80.3138 35.8272 82.2193 37.2719C84.107 38.703 85.5448 40.8585 86.2018 43.8344L92.8187 42.3736C91.8437 37.9575 89.5855 34.353 86.3132 31.8721C83.0587 29.4048 78.9984 28.1959 74.6302 28.1959V34.9721ZM89.5103 39.7159H59.8462V46.4921H89.5103V39.7159ZM154.3 61.248L157.192 63.0132L159.131 59.8367L155.787 58.2035L154.3 61.248ZM146.044 57.216L147.531 54.1715L145.05 52.9603L143.363 55.1443L146.044 57.216ZM116.188 51.648V48.2599H111.79L112.912 52.5125L116.188 51.648ZM155.836 51.648V55.0361H158.959L159.213 51.9237L155.836 51.648ZM116.284 43.104L113.002 42.2602L111.914 46.4921H116.284V43.104ZM145.948 43.104V46.4921H150.165L149.256 42.3736L145.948 43.104ZM132.124 76.4441C142.393 76.4441 152.001 71.5179 157.192 63.0132L151.408 59.4828C147.575 65.7621 140.287 69.6679 132.124 69.6679V76.4441ZM155.787 58.2035L147.531 54.1715L144.557 60.2605L152.813 64.2925L155.787 58.2035ZM143.363 55.1443C140.829 58.4229 136.797 60.2599 132.124 60.2599V67.0361C138.586 67.0361 144.73 64.4571 148.725 59.2877L143.363 55.1443ZM132.124 60.2599C125.875 60.2599 120.892 56.1974 119.464 50.7835L112.912 52.5125C115.131 60.9226 122.821 67.0361 132.124 67.0361V60.2599ZM116.188 55.0361H155.836V48.2599H116.188V55.0361ZM159.213 51.9237C160.049 41.6831 157.072 33.344 151.695 27.551C146.348 21.7911 138.847 18.7879 131.068 18.7879V25.5641C137.113 25.5641 142.763 27.8889 146.729 32.161C150.663 36.4 153.159 42.7969 152.459 51.3723L159.213 51.9237ZM131.068 18.7879C114.984 18.7879 102.816 31.7353 102.816 47.616H109.592C109.592 35.2727 118.928 25.5641 131.068 25.5641V18.7879ZM102.816 47.616C102.816 63.6568 115.911 76.4441 132.124 76.4441V69.6679C119.537 69.6679 109.592 59.7992 109.592 47.616H102.816ZM119.565 43.9478C120.928 38.6469 125.302 34.9721 131.068 34.9721V28.1959C122.05 28.1959 115.095 34.1211 113.002 42.2602L119.565 43.9478ZM131.068 34.9721C134.188 34.9721 136.751 35.8272 138.657 37.2719C140.544 38.703 141.982 40.8585 142.639 43.8344L149.256 42.3736C148.281 37.9575 146.023 34.353 142.751 31.8721C139.496 29.4048 135.436 28.1959 131.068 28.1959V34.9721ZM145.948 39.7159H116.284V46.4921H145.948V39.7159ZM164.561 72H161.173V75.3881H164.561V72ZM173.969 72V75.3881H177.357V72H173.969ZM198.737 72H195.349V75.3881H198.737V72ZM208.145 72V75.3881H211.533V72H208.145ZM232.913 72H229.525V75.3881H232.913V72ZM242.321 72V75.3881H245.709V72H242.321ZM204.689 31.872L201.754 33.5637L204.48 38.2942L207.508 33.7514L204.689 31.872ZM173.969 28.992H170.581V38.9719L176.657 31.0547L173.969 28.992ZM173.969 23.328H177.357V19.9399H173.969V23.328ZM164.561 23.328V19.9399H161.173V23.328H164.561ZM164.561 75.3881H173.969V68.6119H164.561V75.3881ZM177.357 72V47.808H170.581V72H177.357ZM177.357 47.808C177.357 44.006 178.263 40.7091 179.87 38.4623C181.378 36.3516 183.622 34.9721 187.025 34.9721V28.1959C181.404 28.1959 177.12 30.6564 174.357 34.5216C171.691 38.2509 170.581 43.066 170.581 47.808H177.357ZM187.025 34.9721C191.81 34.9721 195.349 39.1755 195.349 45.12H202.125C202.125 36.8565 196.832 28.1959 187.025 28.1959V34.9721ZM195.349 45.12V72H202.125V45.12H195.349ZM198.737 75.3881H208.145V68.6119H198.737V75.3881ZM211.533 72V47.808H204.757V72H211.533ZM211.533 47.808C211.533 44.006 212.439 40.7091 214.046 38.4623C215.554 36.3516 217.798 34.9721 221.201 34.9721V28.1959C215.58 28.1959 211.296 30.6564 208.533 34.5216C205.867 38.2509 204.757 43.066 204.757 47.808H211.533ZM221.201 34.9721C225.986 34.9721 229.525 39.1755 229.525 45.12H236.301C236.301 36.8565 231.008 28.1959 221.201 28.1959V34.9721ZM229.525 45.12V72H236.301V45.12H229.525ZM232.913 75.3881H242.321V68.6119H232.913V75.3881ZM245.709 72V45.12H238.933V72H245.709ZM245.709 45.12C245.709 38.6739 243.772 32.1594 239.813 27.1827C235.79 22.1263 229.766 18.7879 222.065 18.7879V25.5641C227.612 25.5641 231.716 27.8897 234.51 31.4013C237.367 34.9926 238.933 39.9501 238.933 45.12H245.709ZM222.065 18.7879C213.163 18.7879 206.228 23.4552 201.87 29.9926L207.508 33.7514C210.83 28.7688 215.799 25.5641 222.065 25.5641V18.7879ZM207.625 30.1803C203.821 23.58 197.098 18.7879 187.889 18.7879V25.5641C194.424 25.5641 199.029 28.836 201.754 33.5637L207.625 30.1803ZM187.889 18.7879C180.613 18.7879 175.041 22.03 171.281 26.9292L176.657 31.0547C179.233 27.698 182.877 25.5641 187.889 25.5641V18.7879ZM177.357 28.992V23.328H170.581V28.992H177.357ZM173.969 19.9399H164.561V26.7161H173.969V19.9399ZM161.173 23.328V72H167.949V23.328H161.173ZM252.874 72H249.486V75.3881H252.874V72ZM262.282 72V75.3881H265.67V72H262.282ZM262.282 0.479996H265.67V-2.90813H262.282V0.479996ZM252.874 0.479996V-2.90813H249.486V0.479996H252.874ZM252.874 75.3881H262.282V68.6119H252.874V75.3881ZM265.67 72V0.479996H258.894V72H265.67ZM262.282 -2.90813H252.874V3.86811H262.282V-2.90813ZM249.486 0.479996V72H256.262V0.479996H249.486ZM319.018 61.248L321.91 63.0132L323.849 59.8367L320.505 58.2035L319.018 61.248ZM310.763 57.216L312.249 54.1715L309.769 52.9603L308.082 55.1443L310.763 57.216ZM280.906 51.648V48.2599H276.508L277.631 52.5125L280.906 51.648ZM320.555 51.648V55.0361H323.677L323.931 51.9237L320.555 51.648ZM281.003 43.104L277.721 42.2602L276.633 46.4921H281.003V43.104ZM310.667 43.104V46.4921H314.884L313.975 42.3736L310.667 43.104ZM296.842 76.4441C307.111 76.4441 316.719 71.5179 321.91 63.0132L316.127 59.4828C312.294 65.7621 305.006 69.6679 296.842 69.6679V76.4441ZM320.505 58.2035L312.249 54.1715L309.276 60.2605L317.532 64.2925L320.505 58.2035ZM308.082 55.1443C305.548 58.4229 301.516 60.2599 296.842 60.2599V67.0361C303.305 67.0361 309.449 64.4571 313.443 59.2877L308.082 55.1443ZM296.842 60.2599C290.594 60.2599 285.611 56.1974 284.182 50.7835L277.631 52.5125C279.85 60.9226 287.539 67.0361 296.842 67.0361V60.2599ZM280.906 55.0361H320.555V48.2599H280.906V55.0361ZM323.931 51.9237C324.767 41.6831 321.791 33.344 316.414 27.551C311.067 21.7911 303.566 18.7879 295.786 18.7879V25.5641C301.831 25.5641 307.482 27.8889 311.447 32.161C315.382 36.4 317.878 42.7969 317.178 51.3723L323.931 51.9237ZM295.786 18.7879C279.702 18.7879 267.534 31.7353 267.534 47.616H274.311C274.311 35.2727 283.647 25.5641 295.786 25.5641V18.7879ZM267.534 47.616C267.534 63.6568 280.629 76.4441 296.842 76.4441V69.6679C284.256 69.6679 274.311 59.7992 274.311 47.616H267.534ZM284.284 43.9478C285.647 38.6469 290.02 34.9721 295.786 34.9721V28.1959C286.769 28.1959 279.814 34.1211 277.721 42.2602L284.284 43.9478ZM295.786 34.9721C298.906 34.9721 301.47 35.8272 303.376 37.2719C305.263 38.703 306.701 40.8585 307.358 43.8344L313.975 42.3736C313 37.9575 310.742 34.353 307.469 31.8721C304.215 29.4048 300.155 28.1959 295.786 28.1959V34.9721ZM310.667 39.7159H281.003V46.4921H310.667V39.7159ZM346.391 42.912L345.454 46.1681L345.47 46.1727L345.486 46.1772L346.391 42.912ZM350.23 35.328L347.016 36.3994L347.927 39.1323L350.771 38.6727L350.23 35.328ZM359.734 33.792L360.275 37.1367L363.682 36.5861L363.069 33.19L359.734 33.792ZM342.551 51.456L341.662 54.7257L341.67 54.7276L342.551 51.456ZM335.254 58.56L338.612 58.1022L338.159 54.7867L334.839 55.1975L335.254 58.56ZM325.943 59.712L325.527 56.3495L322.2 56.761L322.576 60.0914L325.943 59.712ZM344.663 76.5401C349.857 76.5401 355.118 74.9888 359.156 71.8045C363.273 68.5582 366.003 63.6866 366.003 57.504H359.226C359.226 61.4974 357.54 64.4499 354.961 66.4835C352.303 68.5792 348.588 69.7639 344.663 69.7639V76.5401ZM366.003 57.504C366.003 50.8748 362.743 46.6688 358.678 44.0484C354.871 41.5941 350.232 40.4601 347.295 39.6468L345.486 46.1772C348.789 47.0919 352.262 47.9739 355.007 49.7436C357.494 51.3472 359.226 53.5732 359.226 57.504H366.003ZM347.327 39.6559C343.87 38.6614 342.131 37.8595 341.28 37.2227C340.91 36.946 340.823 36.7834 340.809 36.7551C340.799 36.7359 340.755 36.6544 340.755 36.384H333.978C333.978 37.5056 334.186 38.6841 334.773 39.8349C335.356 40.9766 336.211 41.894 337.221 42.6493C339.13 44.0765 341.903 45.1466 345.454 46.1681L347.327 39.6559ZM340.755 36.384C340.755 35.9055 340.919 35.6062 341.267 35.3386C341.691 35.0127 342.5 34.6841 343.703 34.6841V27.9079C341.353 27.9079 338.994 28.5393 337.138 29.9654C335.206 31.4498 333.978 33.6945 333.978 36.384H340.755ZM343.703 34.6841C345.23 34.6841 345.955 35.0781 346.293 35.3401C346.661 35.6259 346.885 36.0053 347.016 36.3994L353.445 34.2566C353 32.9227 352.12 31.2861 350.448 29.9879C348.746 28.6659 346.495 27.9079 343.703 27.9079V34.6841ZM350.771 38.6727L360.275 37.1367L359.194 30.4473L349.69 31.9833L350.771 38.6727ZM363.069 33.19C361.443 24.1863 352.481 18.8839 343.703 18.8839V25.6601C350.284 25.6601 355.53 29.5737 356.4 34.394L363.069 33.19ZM343.703 18.8839C333.79 18.8839 324.378 25.6133 324.378 35.904H331.155C331.155 30.4507 336.335 25.6601 343.703 25.6601V18.8839ZM324.378 35.904C324.378 41.7822 326.52 46.0854 330.009 49.1437C333.33 52.0555 337.644 53.6342 341.662 54.7257L343.439 48.1863C339.681 47.1658 336.603 45.9125 334.476 44.0483C332.517 42.3305 331.155 39.9137 331.155 35.904H324.378ZM341.67 54.7276C345.538 55.7691 347.744 56.4405 349.023 57.1344C349.304 57.2868 349.481 57.4106 349.59 57.4996C349.642 57.5429 349.675 57.5756 349.695 57.5964C349.705 57.6069 349.711 57.6146 349.715 57.6195C349.719 57.6244 349.721 57.6269 349.721 57.6271C349.721 57.6272 349.72 57.6256 349.718 57.6225C349.716 57.6194 349.714 57.6155 349.712 57.6111C349.708 57.6015 349.706 57.5955 349.706 57.5961C349.706 57.5972 349.71 57.6108 349.714 57.641C349.718 57.6717 349.722 57.7208 349.722 57.792H356.499C356.499 56.4022 356.158 55.0292 355.306 53.7899C354.493 52.6066 353.381 51.789 352.254 51.1776C350.125 50.0235 347.051 49.1589 343.431 48.1844L341.67 54.7276ZM349.722 57.792C349.722 58.6997 349.393 59.2356 348.761 59.6719C347.993 60.2026 346.628 60.6439 344.663 60.6439V67.4201C347.497 67.4201 350.356 66.8054 352.612 65.2481C355.004 63.5964 356.499 61.0123 356.499 57.792H349.722ZM344.663 60.6439C341.75 60.6439 340.248 59.9405 339.525 59.3909C338.796 58.8362 338.635 58.2772 338.612 58.1022L331.897 59.0178C332.162 60.9548 333.249 63.1318 335.424 64.7851C337.605 66.4435 340.663 67.4201 344.663 67.4201V60.6439ZM334.839 55.1975L325.527 56.3495L326.358 63.0745L335.67 61.9225L334.839 55.1975ZM322.576 60.0914C323.571 68.926 331.552 76.5401 344.663 76.5401V69.7639C334.349 69.7639 329.85 64.13 329.309 59.3326L322.576 60.0914ZM388.859 42.912L387.923 46.1681L387.939 46.1727L387.955 46.1772L388.859 42.912ZM392.699 35.328L389.485 36.3994L390.396 39.1323L393.24 38.6727L392.699 35.328ZM402.203 33.792L402.744 37.1367L406.151 36.5861L405.537 33.19L402.203 33.792ZM385.019 51.456L384.131 54.7257L384.138 54.7276L385.019 51.456ZM377.723 58.56L381.08 58.1022L380.628 54.7867L377.307 55.1975L377.723 58.56ZM368.411 59.712L367.995 56.3495L364.669 56.761L365.044 60.0914L368.411 59.712ZM387.131 76.5401C392.326 76.5401 397.587 74.9888 401.625 71.8045C405.742 68.5582 408.471 63.6866 408.471 57.504H401.695C401.695 61.4974 400.008 64.4499 397.429 66.4835C394.772 68.5792 391.057 69.7639 387.131 69.7639V76.5401ZM408.471 57.504C408.471 50.8748 405.212 46.6688 401.147 44.0484C397.34 41.5941 392.701 40.4601 389.763 39.6468L387.955 46.1772C391.258 47.0919 394.73 47.9739 397.475 49.7436C399.963 51.3472 401.695 53.5732 401.695 57.504H408.471ZM389.796 39.6559C386.339 38.6614 384.6 37.8595 383.748 37.2227C383.378 36.946 383.292 36.7834 383.278 36.7551C383.268 36.7359 383.223 36.6544 383.223 36.384H376.447C376.447 37.5056 376.655 38.6841 377.242 39.8349C377.824 40.9766 378.68 41.894 379.69 42.6493C381.599 44.0765 384.372 45.1466 387.923 46.1681L389.796 39.6559ZM383.223 36.384C383.223 35.9055 383.387 35.6062 383.736 35.3386C384.16 35.0127 384.969 34.6841 386.171 34.6841V27.9079C383.822 27.9079 381.463 28.5393 379.607 29.9654C377.675 31.4498 376.447 33.6945 376.447 36.384H383.223ZM386.171 34.6841C387.699 34.6841 388.424 35.0781 388.761 35.3401C389.129 35.6259 389.354 36.0053 389.485 36.3994L395.914 34.2566C395.469 32.9227 394.589 31.2861 392.917 29.9879C391.215 28.6659 388.964 27.9079 386.171 27.9079V34.6841ZM393.24 38.6727L402.744 37.1367L401.663 30.4473L392.159 31.9833L393.24 38.6727ZM405.537 33.19C403.912 24.1863 394.95 18.8839 386.171 18.8839V25.6601C392.752 25.6601 397.999 29.5737 398.869 34.394L405.537 33.19ZM386.171 18.8839C376.259 18.8839 366.847 25.6133 366.847 35.904H373.623C373.623 30.4507 378.803 25.6601 386.171 25.6601V18.8839ZM366.847 35.904C366.847 41.7822 368.989 46.0854 372.478 49.1437C375.799 52.0555 380.113 53.6342 384.131 54.7257L385.907 48.1863C382.15 47.1658 379.071 45.9125 376.945 44.0483C374.985 42.3305 373.623 39.9137 373.623 35.904H366.847ZM384.138 54.7276C388.007 55.7691 390.212 56.4405 391.492 57.1344C391.773 57.2868 391.95 57.4106 392.058 57.4996C392.111 57.5429 392.144 57.5756 392.164 57.5964C392.173 57.6069 392.18 57.6146 392.184 57.6195C392.188 57.6244 392.19 57.6269 392.19 57.6271C392.19 57.6272 392.189 57.6256 392.187 57.6225C392.185 57.6194 392.183 57.6155 392.181 57.6111C392.176 57.6015 392.175 57.5955 392.175 57.5961C392.175 57.5972 392.179 57.6108 392.183 57.641C392.187 57.6717 392.191 57.7208 392.191 57.792H398.967C398.967 56.4022 398.626 55.0292 397.775 53.7899C396.962 52.6066 395.85 51.789 394.722 51.1776C392.594 50.0235 389.52 49.1589 385.9 48.1844L384.138 54.7276ZM392.191 57.792C392.191 58.6997 391.862 59.2356 391.23 59.6719C390.462 60.2026 389.097 60.6439 387.131 60.6439V67.4201C389.966 67.4201 392.825 66.8054 395.08 65.2481C397.472 63.5964 398.967 61.0123 398.967 57.792H392.191ZM387.131 60.6439C384.219 60.6439 382.717 59.9405 381.994 59.3909C381.264 58.8362 381.104 58.2772 381.08 58.1022L374.366 59.0178C374.63 60.9548 375.718 63.1318 377.893 64.7851C380.074 66.4435 383.131 67.4201 387.131 67.4201V60.6439ZM377.307 55.1975L367.995 56.3495L368.827 63.0745L378.139 61.9225L377.307 55.1975ZM365.044 60.0914C366.04 68.926 374.02 76.5401 387.131 76.5401V69.7639C376.818 69.7639 372.319 64.13 371.778 59.3326L365.044 60.0914ZM413.28 72H409.892V75.3881H413.28V72ZM422.688 72V75.3881H426.076V72H422.688ZM422.688 0.479996H426.076V-2.90813H422.688V0.479996ZM413.28 0.479996V-2.90813H409.892V0.479996H413.28ZM413.28 75.3881H422.688V68.6119H413.28V75.3881ZM426.076 72V0.479996H419.3V72H426.076ZM422.688 -2.90813H413.28V3.86811H422.688V-2.90813ZM409.892 0.479996V72H416.668V0.479996H409.892ZM441.025 94.848L437.911 93.5134L435.887 98.2361H441.025V94.848ZM451.297 94.848V98.2361H453.534L454.413 96.1781L451.297 94.848ZM481.825 23.328L484.941 24.6581L486.955 19.9399H481.825V23.328ZM471.649 23.328V19.9399H469.416L468.535 21.9914L471.649 23.328ZM455.905 60L452.791 61.3366L455.905 68.5884L459.018 61.3366L455.905 60ZM440.161 23.328L443.274 21.9914L442.393 19.9399H440.161V23.328ZM429.889 23.328V19.9399H424.744L426.776 24.6663L429.889 23.328ZM450.817 72L453.931 73.3346L454.504 71.9978L453.929 70.6617L450.817 72ZM441.025 98.2361H451.297V91.4599H441.025V98.2361ZM454.413 96.1781L484.941 24.6581L478.709 21.9979L448.181 93.5179L454.413 96.1781ZM481.825 19.9399H471.649V26.7161H481.825V19.9399ZM468.535 21.9914L452.791 58.6634L459.018 61.3366L474.762 24.6646L468.535 21.9914ZM459.018 58.6634L443.274 21.9914L437.047 24.6646L452.791 61.3366L459.018 58.6634ZM440.161 19.9399H429.889V26.7161H440.161V19.9399ZM426.776 24.6663L447.704 73.3383L453.929 70.6617L433.001 21.9896L426.776 24.6663ZM447.703 70.6654L437.911 93.5134L444.139 96.1826L453.931 73.3346L447.703 70.6654Z" fill="#F7F7FC"/>
</svg>
