<svg width="289" height="395" viewBox="0 0 289 395" fill="none" xmlns="http://www.w3.org/2000/svg">
<g clip-path="url(#clip0_422_12439)">
<rect width="289" height="395" fill="#202020"/>
<g style="mix-blend-mode:multiply">
<g clip-path="url(#clip1_422_12439)">
<g style="mix-blend-mode:multiply">
<path d="M286.738 -33.9453C302.423 -11.4102 284.032 25.1265 307.306 42.0753C329.961 58.5741 357.79 31.5313 379.142 45.7328C410.814 66.801 405.03 163.201 358.724 223.097C344.797 241.109 333.161 248.117 328.009 268.489C316.943 312.232 355.835 338.253 348.433 359.886C331.769 408.599 75.481 449.475 -27.3542 303.077C-75.3852 234.704 -82.5701 135.972 -39.6587 60.983C37.8807 -74.5196 251.544 -84.5119 286.738 -33.9453Z" fill="#F4F7FA"/>
<path d="M258.016 280.066L257.517 279.871L41.1829 195.581L41.843 194.965L182.56 63.3462L69.8611 -23.9721L70.5562 -24.8706L184.312 63.2662L183.825 63.7213L43.28 195.178L257.431 278.617L331.769 117.164L184.697 64.0831L185.084 63.0128L333.321 116.513L333.061 117.077L258.016 280.066Z" fill="#D8DEE8"/>
<path d="M42.1568 194.832L-38.3903 206.561L-38.2265 207.686L42.3206 195.957L42.1568 194.832Z" fill="#D8DEE8"/>
<path d="M209.11 339.057L208.233 338.334L257.532 278.682L302.298 293.39L301.943 294.47L257.914 280.004L209.11 339.057Z" fill="#D8DEE8"/>
<path d="M255.959 276.906L182.824 63.2737L182.922 63.067L228.533 -34.2969L229.561 -33.8151L184.049 63.3404L257.034 276.537L255.959 276.906Z" fill="#D8DEE8"/>
<path d="M183.436 68.3447C186.218 68.3447 188.473 66.0892 188.473 63.3069C188.473 60.5245 186.218 58.269 183.436 58.269C180.653 58.269 178.398 60.5245 178.398 63.3069C178.398 66.0892 180.653 68.3447 183.436 68.3447Z" fill="#D8DEE8"/>
<path d="M257.141 283.977C259.923 283.977 262.179 281.722 262.179 278.94C262.179 276.157 259.923 273.902 257.141 273.902C254.359 273.902 252.103 276.157 252.103 278.94C252.103 281.722 254.359 283.977 257.141 283.977Z" fill="#D8DEE8"/>
<path d="M42.2316 200.417C45.0139 200.417 47.2694 198.162 47.2694 195.38C47.2694 192.597 45.0139 190.342 42.2316 190.342C39.4493 190.342 37.1938 192.597 37.1938 195.38C37.1938 198.162 39.4493 200.417 42.2316 200.417Z" fill="#D8DEE8"/>
<path d="M104.851 7.45893C107.633 7.45893 109.889 5.20343 109.889 2.42112C109.889 -0.361192 107.633 -2.6167 104.851 -2.6167C102.069 -2.6167 99.813 -0.361192 99.813 2.42112C99.813 5.20343 102.069 7.45893 104.851 7.45893Z" fill="#D8DEE8"/>
<path d="M42.4167 195.525L-37.8282 79.3168L-36.893 78.6716L42.0467 192.989L104.411 1.93578L223.321 -24.5453L203.07 -45.5467L203.889 -46.3369L225.547 -23.8768L105.291 2.90433L42.4167 195.525Z" fill="#D8DEE8"/>
<path d="M-48.8892 97.9556L-49.3276 96.9054L-30.37 88.9952L104.419 2.02203L130.02 -46.209L131.025 -45.6755L105.284 2.81721L105.159 2.89723L-29.8382 90.0071L-48.8892 97.9556Z" fill="#D8DEE8"/>
<path d="M331.496 118.24L44.6336 193.73L44.923 194.83L331.785 119.34L331.496 118.24Z" fill="#D8DEE8"/>
<path d="M322.247 260.133L42.4549 194.894L8.33708 238.307L7.44354 237.603L42.0081 193.622L322.505 259.027L322.247 260.133Z" fill="#D8DEE8"/>
<path d="M256.647 279.66L224.013 -22.8178L42.6683 194.622L41.7947 193.893L223.706 -24.2248L223.565 -24.4098L224.073 -24.6649L224.855 -25.6034L224.912 -25.0867L256.886 -41.167L257.396 -40.1501L225.302 -24.0097L333.123 116.664L333.11 116.876L324.428 261.649L256.647 279.66ZM225.217 -22.2543L257.636 278.219L323.344 260.759L331.964 117.017L225.217 -22.2543Z" fill="#D8DEE8"/>
<path opacity="0.95" d="M291.092 374.008L221.154 349.155H331.314L291.092 374.008Z" fill="url(#paint0_linear_422_12439)"/>
<path opacity="0.95" d="M286.363 366.096C272.029 366.096 257.834 361.787 254.657 356.471L240.66 333.062C233.472 321.039 213.501 311.259 181.085 311.259L165.333 310.974C104.298 310.974 43.6322 292.556 30.0974 269.919C16.5626 247.283 55.2065 228.865 116.242 228.865H275.128C307.544 228.865 328.069 219.084 320.879 207.062L318.553 203.174C311.365 191.151 279.144 181.371 246.729 181.371H87.8423C26.8066 181.371 -33.8589 162.953 -47.3936 140.316C-60.9284 117.68 -22.2846 99.262 38.751 99.262H197.637C230.053 99.262 291.21 89.4815 284.022 77.4587L262.906 42.1407C259.726 36.8245 268.77 32.5151 283.102 32.5151C297.435 32.5151 311.63 36.8245 314.807 42.1407L335.924 77.4587C349.459 100.096 270.181 118.513 209.147 118.513H50.2603C17.8446 118.513 -2.67843 128.294 4.50988 140.316C11.6982 152.339 43.9189 162.12 76.3346 162.12H235.221C296.257 162.12 356.922 180.537 370.457 203.174L372.782 207.062C386.317 229.699 347.673 248.116 286.638 248.116H127.751C95.3356 248.116 74.8126 257.897 82.0009 269.919C89.1892 281.942 121.41 291.723 153.826 291.723L169.578 292.008C230.613 292.008 279.029 310.425 292.566 333.062L306.562 356.471C309.738 361.787 300.694 366.096 286.363 366.096Z" fill="url(#paint1_linear_422_12439)"/>
<path d="M302.341 -20.2495V105.799L285.355 101.978V-8.28344L302.341 -20.2495Z" fill="#97A6B7"/>
<path opacity="0.1" d="M355.476 103.713V105.8H302.343L285.357 101.979V83.3196C286.494 79.3403 287.866 75.4661 289.495 72.2654C295.738 59.9892 293.704 54.9981 295.011 46.0161C296.318 37.034 293.414 -11.6671 302.343 -19.9507C310.69 -6.07918 310.109 -6.67765 310.399 8.09405C310.554 15.9959 310.543 22.9841 311.923 28.172C313.12 32.6813 315.371 35.8271 319.69 37.034C320.598 37.2891 321.495 37.6925 322.376 38.2343C325.184 39.9563 327.827 43.067 330.064 47.1146C333.008 52.4292 335.267 59.3574 336.319 66.8758C336.609 68.933 336.807 71.0368 336.902 73.1639C336.936 73.8707 336.957 74.5826 336.966 75.2961C336.974 75.9162 336.974 76.5364 336.966 77.1548C336.961 77.3732 336.961 77.5883 336.966 77.8016C337.007 83.1729 338.618 86.877 340.885 89.7177C341.845 90.9213 342.924 91.9699 344.05 92.9251C348.558 96.7393 353.841 99.0415 355.476 103.713Z" fill="#97A6B7"/>
<path d="M252.998 -8.41992V84.2146L238.19 81.4089V0.377086L251.656 -7.62307L252.828 -8.3199L252.998 -8.41992Z" fill="#97A6B7"/>
<path d="M294.156 -8.51123H252.998V84.215H294.156V-8.51123Z" fill="#F4F7FA"/>
<path d="M266.063 1.73145H260.837V78.1272H266.063V1.73145Z" fill="#97A6B7"/>
<path d="M277.17 1.73145H271.726V78.1272H277.17V1.73145Z" fill="#97A6B7"/>
<path d="M288.058 1.73145H282.613V78.1272H288.058V1.73145Z" fill="#97A6B7"/>
<path opacity="0.5" d="M266.063 1.73145H264.321V78.1272H266.063V1.73145Z" fill="#97A6B7"/>
<path opacity="0.5" d="M277.169 1.73145H275.427V78.1272H277.169V1.73145Z" fill="#97A6B7"/>
<path opacity="0.5" d="M288.275 1.73145H286.533V78.1272H288.275V1.73145Z" fill="#97A6B7"/>
<path opacity="0.1" d="M294.154 84.2099V84.2149H252.997L238.188 81.4076V71.9822C245.048 61.4864 242.789 57.1204 244.27 49.3353C245.715 41.7352 242.664 1.68443 251.655 -7.62269C251.98 -7.96277 252.318 -8.25951 252.677 -8.51123C252.727 -8.44788 252.777 -8.38453 252.827 -8.31952C252.883 -8.24783 252.94 -8.17615 252.997 -8.1028C257.674 -2.15478 259.817 0.685874 260.837 3.7049C261.83 6.64724 261.755 9.75795 261.917 16.0827C262.117 23.8612 262.075 30.6277 264.321 35.2871C264.791 36.269 265.364 37.1559 266.063 37.9394C267.42 39.4647 269.249 40.5966 271.724 41.2585C271.999 41.3335 272.279 41.4018 272.569 41.4635C273.535 41.6686 274.488 41.9886 275.427 42.4121C276.015 42.6755 276.597 42.9789 277.169 43.3256C279.091 44.4742 280.928 46.0512 282.613 47.97C284.037 49.5887 285.356 51.4491 286.533 53.4946C287.071 54.4298 287.58 55.405 288.056 56.4153C288.13 56.5703 288.201 56.7253 288.275 56.8837C290.94 62.7067 292.521 69.6133 292.382 76.6432C292.321 79.7039 293.001 82.1678 294.154 84.2099Z" fill="#97A6B7"/>
<path d="M295.311 65.374H207.239V105.668H295.311V65.374Z" fill="#F4F7FA"/>
<g opacity="0.1">
<path d="M278.731 91.183C272.111 89.1676 264.167 90.1745 258.871 87.1505C242.591 80.0688 225.614 66.7708 207.239 65.6855V105.666H295.311V101.747C289.97 97.8012 284.727 93.847 278.731 91.183Z" fill="#97A6B7"/>
</g>
<path d="M207.815 105.485L192.936 101.432V70.5082L207.448 65.5171L207.815 105.485Z" fill="#97A6B7"/>
<path d="M285.381 89.2192H267.258V105.643H285.381V89.2192Z" fill="#97A6B7"/>
<path opacity="0.5" d="M285.381 89.2192H283.639V105.643H285.381V89.2192Z" fill="#97A6B7"/>
<path d="M251.673 89.2192H233.551V105.643H251.673V89.2192Z" fill="#97A6B7"/>
<path opacity="0.5" d="M251.388 89.2192H249.646V105.643H251.388V89.2192Z" fill="#97A6B7"/>
<path d="M224.737 17.8909C224.737 28.8885 209.33 48.9547 202.358 57.4733C200.623 59.5938 197.38 59.5938 195.645 57.4733C188.673 48.9547 173.267 28.8885 173.267 17.8909C173.267 3.6777 184.789 -7.84326 199.001 -7.84326C213.216 -7.84326 224.737 3.6777 224.737 17.8909Z" fill="url(#paint2_linear_422_12439)"/>
<path d="M212.979 21.2073C214.801 13.4926 210.024 5.76192 202.309 3.94028C194.594 2.11863 186.864 6.89585 185.042 14.6105C183.22 22.3251 187.998 30.0558 195.712 31.8775C203.427 33.6991 211.158 28.9219 212.979 21.2073Z" fill="white"/>
<g opacity="0.3">
<path d="M198.889 46.908C200.521 36.1556 207.623 32.7148 206.404 22.5608C204.999 10.8515 194.631 7.73411 194.381 -2.68828C194.341 -4.36533 194.57 -5.98403 195 -7.53271C182.689 -5.60894 173.268 5.04015 173.268 17.8914C173.268 28.8889 188.675 48.9552 195.647 57.4738C196.669 58.7207 198.212 59.2342 199.663 59.0125C198.414 54.3031 198.377 50.2822 198.889 46.908Z" fill="url(#paint3_linear_422_12439)"/>
</g>
<path d="M160.974 116.839L83.3428 103.188L87.6222 59.9912H148.546L160.974 116.839Z" fill="#BFC8D6"/>
<path opacity="0.3" d="M133.484 87.7209C121.502 78.8672 105.46 82.0346 100.068 71.4205C98.3229 67.983 98.1746 64.0438 98.9864 59.9912H87.6205L83.3428 103.188L147.362 114.445C145.019 100.082 139.542 92.1969 133.484 87.7209Z" fill="url(#paint4_linear_422_12439)"/>
<path d="M121.313 54.7134H120.073V61.3266H121.313V54.7134Z" fill="url(#paint5_linear_422_12439)"/>
<path d="M125.917 54.7134H124.677V61.3266H125.917V54.7134Z" fill="url(#paint6_linear_422_12439)"/>
<path d="M130.523 54.7134H129.283V61.3266H130.523V54.7134Z" fill="url(#paint7_linear_422_12439)"/>
<path d="M135.128 54.7134H133.888V61.3266H135.128V54.7134Z" fill="url(#paint8_linear_422_12439)"/>
<path d="M144.338 54.7134H143.098V61.3266H144.338V54.7134Z" fill="url(#paint9_linear_422_12439)"/>
<path d="M139.734 54.7134H138.494V61.3266H139.734V54.7134Z" fill="url(#paint10_linear_422_12439)"/>
<path d="M148.944 54.7134H147.704V61.3266H148.944V54.7134Z" fill="url(#paint11_linear_422_12439)"/>
<path d="M153.549 54.7134H152.309V61.3266H153.549V54.7134Z" fill="url(#paint12_linear_422_12439)"/>
<path d="M153.549 53.6943H83.2292V55.1213H153.549V53.6943Z" fill="url(#paint13_linear_422_12439)"/>
<path d="M84.4695 54.7134H83.2292V61.3266H84.4695V54.7134Z" fill="url(#paint14_linear_422_12439)"/>
<path d="M89.0757 54.7134H87.8354V61.3266H89.0757V54.7134Z" fill="url(#paint15_linear_422_12439)"/>
<path d="M93.6802 54.7134H92.4399V61.3266H93.6802V54.7134Z" fill="url(#paint16_linear_422_12439)"/>
<path d="M98.2861 54.7134H97.0458V61.3266H98.2861V54.7134Z" fill="url(#paint17_linear_422_12439)"/>
<path d="M102.891 54.7134H101.65V61.3266H102.891V54.7134Z" fill="url(#paint18_linear_422_12439)"/>
<path d="M107.496 54.7134H106.256V61.3266H107.496V54.7134Z" fill="url(#paint19_linear_422_12439)"/>
<path d="M112.101 54.7134H110.861V61.3266H112.101V54.7134Z" fill="url(#paint20_linear_422_12439)"/>
<path d="M116.707 54.7134H115.467V61.3266H116.707V54.7134Z" fill="url(#paint21_linear_422_12439)"/>
<path d="M153.549 58.1772H83.2292V64.4737H153.549V58.1772Z" fill="url(#paint22_linear_422_12439)"/>
<path d="M127.716 78.8159H64.2084V109.708H127.716V78.8159Z" fill="#D8DEE8"/>
<path opacity="0.3" d="M125.085 80.6646H66.8405V107.377H125.085V80.6646Z" fill="#D8DEE8"/>
<path opacity="0.6" d="M73.2555 80.6646H70.5649V107.377H73.2555V80.6646Z" fill="#D8DEE8"/>
<path d="M73.3604 80.6646H71.5667V107.377H73.3604V80.6646Z" fill="#D8DEE8"/>
<path opacity="0.6" d="M80.1138 80.6646H77.4232V107.377H80.1138V80.6646Z" fill="#D8DEE8"/>
<path d="M80.2185 80.6646H78.4247V107.377H80.2185V80.6646Z" fill="#D8DEE8"/>
<path opacity="0.6" d="M86.9703 80.6646H84.2797V107.377H86.9703V80.6646Z" fill="#D8DEE8"/>
<path d="M87.0751 80.6646H85.2813V107.377H87.0751V80.6646Z" fill="#D8DEE8"/>
<path opacity="0.6" d="M93.8268 80.6646H91.1362V107.377H93.8268V80.6646Z" fill="#D8DEE8"/>
<path d="M93.9334 80.6646H92.1396V107.377H93.9334V80.6646Z" fill="#D8DEE8"/>
<path opacity="0.6" d="M100.685 80.6646H97.9944V107.377H100.685V80.6646Z" fill="#D8DEE8"/>
<path d="M100.79 80.6646H98.9963V107.377H100.79V80.6646Z" fill="#D8DEE8"/>
<path opacity="0.6" d="M107.542 80.6646H104.851V107.377H107.542V80.6646Z" fill="#D8DEE8"/>
<path d="M107.646 80.6646H105.853V107.377H107.646V80.6646Z" fill="#D8DEE8"/>
<path opacity="0.6" d="M114.4 80.6646H111.709V107.377H114.4V80.6646Z" fill="#D8DEE8"/>
<path d="M114.505 80.6646H112.711V107.377H114.505V80.6646Z" fill="#D8DEE8"/>
<path opacity="0.6" d="M121.256 80.6646H118.566V107.377H121.256V80.6646Z" fill="#D8DEE8"/>
<path d="M121.361 80.6646H119.568V107.377H121.361V80.6646Z" fill="#D8DEE8"/>
<path d="M64.2084 78.8159H32.4329V109.708H64.2084V78.8159Z" fill="#D8DEE8"/>
<path d="M63.2377 108.737L63.2377 79.7871H33.4059V108.737H63.2377Z" fill="#D8DEE8"/>
<path d="M62.8149 80.3706H48.5366V108.15H62.8149V80.3706Z" fill="#D8DEE8"/>
<path d="M48.1047 80.3706H33.8264V108.15H48.1047V80.3706Z" fill="#D8DEE8"/>
<path opacity="0.3" d="M48.1047 88.2876H33.8264V90.7165H48.1047V88.2876Z" fill="#D8DEE8"/>
<path opacity="0.3" d="M48.1047 97.8062H33.8264V100.235H48.1047V97.8062Z" fill="#D8DEE8"/>
<path opacity="0.3" d="M62.8149 88.2876H48.5366V90.7165H62.8149V88.2876Z" fill="#D8DEE8"/>
<path opacity="0.3" d="M62.8149 97.8062H48.5366V100.235H62.8149V97.8062Z" fill="#D8DEE8"/>
<path d="M40.9498 79.6421H40.1996V108.589H40.9498V79.6421Z" fill="#D8DEE8"/>
<path d="M40.1996 108.589V79.6421H40.5747L40.1996 108.589Z" fill="#97A6B7"/>
<path d="M41.2331 78.9956H39.9145V80.5176H41.2331V78.9956Z" fill="#D8DEE8"/>
<path d="M41.2331 107.827H39.9144V109.349H41.2331V107.827Z" fill="#D8DEE8"/>
<path d="M51.2786 79.6421H50.5284V108.589H51.2786V79.6421Z" fill="#D8DEE8"/>
<path d="M50.5284 108.589V79.6421H50.9035L50.5284 108.589Z" fill="#97A6B7"/>
<path d="M51.5619 78.9956H50.2433V80.5176H51.5619V78.9956Z" fill="#D8DEE8"/>
<path d="M51.5619 107.827H50.2432V109.349H51.5619V107.827Z" fill="#D8DEE8"/>
<path d="M56.443 79.6421H55.6929V108.589H56.443V79.6421Z" fill="#D8DEE8"/>
<path d="M55.6929 108.589V79.6421H56.068L55.6929 108.589Z" fill="#97A6B7"/>
<path d="M56.7267 78.9956H55.4081V80.5176H56.7267V78.9956Z" fill="#D8DEE8"/>
<path d="M56.7266 107.827H55.408V109.349H56.7266V107.827Z" fill="#D8DEE8"/>
<path d="M46.1143 79.6421H45.3641V108.589H46.1143V79.6421Z" fill="#D8DEE8"/>
<path d="M45.3641 108.589V79.6421H45.7392L45.3641 108.589Z" fill="#97A6B7"/>
<path d="M46.3975 78.9956H45.0789V80.5176H46.3975V78.9956Z" fill="#D8DEE8"/>
<path d="M46.3975 107.827H45.0789V109.349H46.3975V107.827Z" fill="#D8DEE8"/>
<path d="M117.184 48.1016H53.676V78.9936H117.184V48.1016Z" fill="#D8DEE8"/>
<path opacity="0.3" d="M114.553 49.9517H56.3083V76.6644H114.553V49.9517Z" fill="#D8DEE8"/>
<path opacity="0.6" d="M62.723 49.9517H60.0324V76.6644H62.723V49.9517Z" fill="#D8DEE8"/>
<path d="M62.8279 49.9517H61.0341V76.6644H62.8279V49.9517Z" fill="#D8DEE8"/>
<path opacity="0.6" d="M69.5795 49.9517H66.8889V76.6644H69.5795V49.9517Z" fill="#D8DEE8"/>
<path d="M69.6862 49.9517H67.8925V76.6644H69.6862V49.9517Z" fill="#D8DEE8"/>
<path opacity="0.6" d="M76.4378 49.9517H73.7472V76.6644H76.4378V49.9517Z" fill="#D8DEE8"/>
<path d="M76.5426 49.9517H74.7488V76.6644H76.5426V49.9517Z" fill="#D8DEE8"/>
<path opacity="0.6" d="M83.2943 49.9517H80.6037V76.6644H83.2943V49.9517Z" fill="#D8DEE8"/>
<path d="M83.3992 49.9517H81.6054V76.6644H83.3992V49.9517Z" fill="#D8DEE8"/>
<path opacity="0.6" d="M90.1525 49.9517H87.4619V76.6644H90.1525V49.9517Z" fill="#D8DEE8"/>
<path d="M90.2578 49.9517H88.4641V76.6644H90.2578V49.9517Z" fill="#D8DEE8"/>
<path opacity="0.6" d="M97.0091 49.9517H94.3185V76.6644H97.0091V49.9517Z" fill="#D8DEE8"/>
<path d="M97.1142 49.9517H95.3204V76.6644H97.1142V49.9517Z" fill="#D8DEE8"/>
<path opacity="0.6" d="M103.866 49.9517H101.175V76.6644H103.866V49.9517Z" fill="#D8DEE8"/>
<path d="M103.973 49.9517H102.179V76.6644H103.973V49.9517Z" fill="#D8DEE8"/>
<path opacity="0.6" d="M110.724 49.9517H108.033V76.6644H110.724V49.9517Z" fill="#D8DEE8"/>
<path d="M110.829 49.9517H109.035V76.6644H110.829V49.9517Z" fill="#D8DEE8"/>
<path d="M53.676 48.1016H21.9004V78.9936H53.676V48.1016Z" fill="white"/>
<path opacity="0.3" d="M52.7053 78.0237L52.7053 49.0737L22.8734 49.0737L22.8734 78.0237H52.7053Z" fill="#D8DEE8"/>
<path d="M52.2824 49.6587H38.0042V77.44H52.2824V49.6587Z" fill="white"/>
<path d="M37.5722 49.6587H23.2939V77.44H37.5722V49.6587Z" fill="white"/>
<path opacity="0.3" d="M37.5722 57.5742H23.2939V60.0031H37.5722V57.5742Z" fill="#D8DEE8"/>
<path opacity="0.3" d="M37.5722 67.0947H23.2939V69.5236H37.5722V67.0947Z" fill="#D8DEE8"/>
<path opacity="0.3" d="M52.2824 57.5742H38.0042V60.0031H52.2824V57.5742Z" fill="#D8DEE8"/>
<path opacity="0.3" d="M52.2824 67.0947H38.0042V69.5236H52.2824V67.0947Z" fill="#D8DEE8"/>
<path d="M30.4172 48.9287H29.6671V77.8753H30.4172V48.9287Z" fill="#D8DEE8"/>
<path d="M29.6671 77.8753V48.9287H30.0421L29.6671 77.8753Z" fill="#97A6B7"/>
<path d="M30.7006 48.2817H29.382V49.8038H30.7006V48.2817Z" fill="#D8DEE8"/>
<path d="M30.7005 77.1133H29.3818V78.6353H30.7005V77.1133Z" fill="#D8DEE8"/>
<path d="M40.7461 48.9287H39.9959V77.8753H40.7461V48.9287Z" fill="#D8DEE8"/>
<path d="M39.9959 77.8753V48.9287H40.371L39.9959 77.8753Z" fill="#97A6B7"/>
<path d="M41.0297 48.2817H39.7111V49.8038H41.0297V48.2817Z" fill="#D8DEE8"/>
<path d="M41.0297 77.1133H39.7111V78.6353H41.0297V77.1133Z" fill="#D8DEE8"/>
<path d="M45.9104 48.9287H45.1602V77.8753H45.9104V48.9287Z" fill="#D8DEE8"/>
<path d="M45.1602 77.8753V48.9287H45.5353L45.1602 77.8753Z" fill="#97A6B7"/>
<path d="M46.1941 48.2817H44.8755V49.8038H46.1941V48.2817Z" fill="#D8DEE8"/>
<path d="M46.194 77.1133H44.8754V78.6353H46.194V77.1133Z" fill="#D8DEE8"/>
<path d="M35.5817 48.9287H34.8315V77.8753H35.5817V48.9287Z" fill="#D8DEE8"/>
<path d="M34.8315 77.8753V48.9287H35.2066L34.8315 77.8753Z" fill="#97A6B7"/>
<path d="M35.8649 48.2817H34.5463V49.8038H35.8649V48.2817Z" fill="#D8DEE8"/>
<path d="M35.8649 77.1133H34.5463V78.6353H35.8649V77.1133Z" fill="#D8DEE8"/>
<path d="M-11.3039 71.7772L-16.6684 85.6553C-17.3186 87.3357 -16.9769 89.2378 -15.7799 90.5831C-9.18507 98.0032 11.9097 122.694 13.4551 136.604H154.657C154.657 136.604 156.084 131.509 159.343 128.657C162.604 125.805 165.048 118.59 162.196 113.987L114.517 103.086L107.707 89.8796C106.751 88.0276 104.883 86.8273 102.8 86.7273L96.8275 86.4422C94.6503 86.3388 92.6815 85.1169 91.6213 83.2131L84.713 70.8053C83.8678 69.2866 82.2658 68.3447 80.5271 68.3447H-6.29775C-8.51492 68.3464 -10.5037 69.7084 -11.3039 71.7772Z" fill="url(#paint23_linear_422_12439)"/>
<path d="M-4.47585 80.979C-9.32029 81.6242 -13.8213 84.6015 -16.992 87.2671C-17.0237 88.4674 -16.6053 89.656 -15.7801 90.5829C-9.18526 98.0029 11.9946 124.967 13.4549 142.49L29.0135 145.382C28.9751 137.043 28.5984 115.259 26.9013 108.282C23.4389 94.0387 -4.47585 80.979 -4.47585 80.979Z" fill="url(#paint24_linear_422_12439)"/>
<path d="M162.197 113.987L114.518 103.086L98.1329 101.577C93.8135 101.179 89.9193 98.8149 87.5738 95.1658L83.1011 88.2075C80.1954 83.6881 75.221 80.9242 69.8464 80.8475C50.1152 80.5691 2.75106 80.014 -4.47559 80.9775C-4.47559 80.9775 23.4391 94.0372 26.9032 108.28C28.6003 115.259 28.9554 137.05 28.9937 145.389H154.659C154.659 145.389 156.086 131.509 159.345 128.657C162.604 125.804 165.05 118.589 162.197 113.987Z" fill="url(#paint25_linear_422_12439)"/>
<path d="M54.0026 113.375L57.6701 106.04H64.19L59.9106 113.375H54.0026Z" fill="url(#paint26_linear_422_12439)"/>
<path d="M18.0796 113.375L14.4121 106.04H7.89056L12.1699 113.375H18.0796Z" fill="url(#paint27_linear_422_12439)"/>
<path opacity="0.3" d="M99.0014 124.527C89.4875 113.185 88.8607 100.135 74.7875 93.3385C60.4192 86.4002 50.6987 94.9922 34.8584 89.6977C30.284 88.169 25.0895 85.4434 19.7816 80.4355C8.08728 80.4455 -1.52991 80.5856 -4.47559 80.979C-4.47559 80.979 23.4391 94.0387 26.9032 108.282C28.6003 115.26 28.9554 136.69 28.9937 145.029H115.197C107.797 141.605 102.667 128.898 99.0014 124.527Z" fill="url(#paint28_linear_422_12439)"/>
<path d="M198.357 197.094V207.038C198.357 207.963 199.057 208.739 199.978 208.832L301.793 218.481L315.497 227.55L334.422 202.377L198.357 197.094Z" fill="url(#paint29_linear_422_12439)"/>
<path d="M276.398 210.762V219.662C276.398 220.409 276.94 221.044 277.677 221.162L302.121 225.088L301.411 210.74L278.016 209.245C277.14 209.19 276.398 209.883 276.398 210.762Z" fill="url(#paint30_linear_422_12439)"/>
<path d="M208.671 201.682C208.588 201.682 208.506 201.689 208.425 201.697L207.133 201.682L207.141 202.251C205.889 203.229 205.019 205.371 205.019 207.857C205.019 210.441 205.957 212.653 207.291 213.573L207.298 214.032H208.673C210.69 214.032 212.325 211.268 212.325 207.857C212.324 204.446 210.688 201.682 208.671 201.682Z" fill="url(#paint31_linear_422_12439)"/>
<path d="M207.133 214.032C209.15 214.032 210.785 211.267 210.785 207.857C210.785 204.447 209.15 201.682 207.133 201.682C205.116 201.682 203.48 204.447 203.48 207.857C203.48 211.267 205.116 214.032 207.133 214.032Z" fill="url(#paint32_linear_422_12439)"/>
<path d="M206.619 211.325C207.752 211.325 208.671 209.772 208.671 207.856C208.671 205.94 207.752 204.387 206.619 204.387C205.486 204.387 204.567 205.94 204.567 207.856C204.567 209.772 205.486 211.325 206.619 211.325Z" fill="#D8DEE8"/>
<path d="M206.929 211.077C207.891 211.077 208.671 209.635 208.671 207.856C208.671 206.078 207.891 204.636 206.929 204.636C205.967 204.636 205.187 206.078 205.187 207.856C205.187 209.635 205.967 211.077 206.929 211.077Z" fill="url(#paint33_linear_422_12439)"/>
<path d="M217.303 202.376C217.213 202.376 217.123 202.383 217.033 202.393L215.616 202.376L215.625 203C214.253 204.074 213.301 206.419 213.301 209.141C213.301 211.972 214.329 214.396 215.79 215.404L215.796 215.906H217.303C219.514 215.906 221.306 212.877 221.306 209.141C221.306 205.405 219.514 202.376 217.303 202.376Z" fill="url(#paint34_linear_422_12439)"/>
<path d="M215.618 215.906C217.829 215.906 219.621 212.877 219.621 209.141C219.621 205.405 217.829 202.376 215.618 202.376C213.408 202.376 211.616 205.405 211.616 209.141C211.616 212.877 213.408 215.906 215.618 215.906Z" fill="url(#paint35_linear_422_12439)"/>
<path d="M215.055 212.943C216.297 212.943 217.303 211.241 217.303 209.142C217.303 207.043 216.297 205.341 215.055 205.341C213.813 205.341 212.806 207.043 212.806 209.142C212.806 211.241 213.813 212.943 215.055 212.943Z" fill="#D8DEE8"/>
<path d="M215.395 212.671C216.449 212.671 217.304 211.091 217.304 209.141C217.304 207.192 216.449 205.612 215.395 205.612C214.341 205.612 213.486 207.192 213.486 209.141C213.486 211.091 214.341 212.671 215.395 212.671Z" fill="url(#paint36_linear_422_12439)"/>
<path d="M226.517 202.376C226.419 202.376 226.32 202.385 226.222 202.395L224.675 202.376L224.683 203.057C223.185 204.229 222.146 206.789 222.146 209.763C222.146 212.854 223.27 215.499 224.863 216.601L224.87 217.15H226.515C228.929 217.15 230.885 213.842 230.885 209.763C230.888 205.684 228.931 202.376 226.517 202.376Z" fill="url(#paint37_linear_422_12439)"/>
<path d="M224.677 217.15C227.09 217.15 229.046 213.843 229.046 209.763C229.046 205.684 227.09 202.376 224.677 202.376C222.263 202.376 220.307 205.684 220.307 209.763C220.307 213.843 222.263 217.15 224.677 217.15Z" fill="url(#paint38_linear_422_12439)"/>
<path d="M224.063 213.913C225.42 213.913 226.519 212.055 226.519 209.764C226.519 207.472 225.42 205.614 224.063 205.614C222.707 205.614 221.608 207.472 221.608 209.764C221.608 212.055 222.707 213.913 224.063 213.913Z" fill="#D8DEE8"/>
<path d="M226.517 209.763C226.517 211.89 225.584 213.616 224.434 213.616C223.283 213.616 222.35 211.89 222.35 209.763C222.35 207.636 223.283 205.911 224.434 205.911C225.585 205.911 226.517 207.636 226.517 209.763Z" fill="url(#paint39_linear_422_12439)"/>
<path d="M269.002 206.229C268.875 206.229 268.75 206.239 268.625 206.253L266.652 206.229L266.663 207.098C264.751 208.593 263.422 211.862 263.422 215.658C263.422 219.604 264.856 222.982 266.892 224.389L266.902 225.089H269.002C272.083 225.089 274.58 220.866 274.58 215.658C274.58 210.452 272.083 206.229 269.002 206.229Z" fill="url(#paint40_linear_422_12439)"/>
<path d="M266.652 225.09C269.732 225.09 272.229 220.868 272.229 215.66C272.229 210.452 269.732 206.229 266.652 206.229C263.571 206.229 261.074 210.452 261.074 215.66C261.074 220.868 263.571 225.09 266.652 225.09Z" fill="url(#paint41_linear_422_12439)"/>
<path d="M265.868 220.958C267.599 220.958 269.002 218.586 269.002 215.66C269.002 212.734 267.599 210.362 265.868 210.362C264.137 210.362 262.734 212.734 262.734 215.66C262.734 218.586 264.137 220.958 265.868 220.958Z" fill="#D8DEE8"/>
<path d="M266.343 220.577C267.813 220.577 269.004 218.376 269.004 215.659C269.004 212.943 267.813 210.742 266.343 210.742C264.874 210.742 263.683 212.943 263.683 215.659C263.683 218.376 264.874 220.577 266.343 220.577Z" fill="url(#paint42_linear_422_12439)"/>
<path d="M192.301 144.161C190.967 144.383 189.99 145.537 189.99 146.889V197.297C189.99 198.764 191.136 199.974 192.601 200.056L287.348 205.342V128.359L192.301 144.161Z" fill="url(#paint43_linear_422_12439)"/>
<path d="M340.777 130.155L287.348 128.358V205.341H343.651V133.128C343.649 131.524 342.379 130.21 340.777 130.155Z" fill="url(#paint44_linear_422_12439)"/>
<path opacity="0.3" d="M267.328 185.99C255.16 180.385 243.741 188.939 232.608 180.672C222.86 173.432 226.002 162.703 218.22 150.018C216.438 147.114 214.051 144.065 210.79 141.086L192.301 144.16C190.967 144.382 189.99 145.535 189.99 146.887V197.295C189.99 198.762 191.136 199.973 192.601 200.054L282.46 205.067C278.336 193.786 272.733 188.478 267.328 185.99Z" fill="url(#paint45_linear_422_12439)"/>
<path d="M-46.8299 243.803L-47.0383 299.132L92.0184 301.488L119.256 220.249L-14.791 226.02L-14.2692 228.366L-46.8299 243.803Z" fill="url(#paint46_linear_422_12439)"/>
<path d="M-46.8302 243.803L-14.5295 224.892L119.256 220.249L89.5293 239.383L-46.8302 243.803Z" fill="url(#paint47_linear_422_12439)"/>
<path d="M-49.0823 248.429L91.9816 242.613V237.955L-49.1073 243.85L-49.0823 248.429Z" fill="url(#paint48_linear_422_12439)"/>
<path d="M119.256 220.249L143.382 243.656L143.802 295.213L92.0182 301.488L92.0215 237.955L119.256 220.249Z" fill="url(#paint49_linear_422_12439)"/>
<path d="M91.9816 243.203L119.393 223.981L143.828 247.079L143.807 243.718L119.28 220.26L91.9816 237.955V243.203Z" fill="url(#paint50_linear_422_12439)"/>
<path d="M139.196 286.453L138.901 246.629L126.534 245.46L126.764 287.488L139.196 286.453Z" fill="white"/>
<path d="M127.608 285.821L138.326 285.099L138.054 248.002L127.391 247.024L127.608 285.821Z" fill="url(#paint51_linear_422_12439)"/>
<path d="M133.394 286.9L133.129 246.071L132.062 245.964L132.323 286.975L133.394 286.9Z" fill="white"/>
<path d="M126.693 274.58L139.105 274.225L139.096 272.778L126.684 273.051L126.693 274.58Z" fill="white"/>
<path d="M126.611 259.552L139.001 259.985L138.989 258.543L126.603 258.031L126.611 259.552Z" fill="white"/>
<path d="M117.197 288.204L117.025 244.534L101.754 243.053L101.822 289.38L117.197 288.204Z" fill="white"/>
<path d="M103.286 287.625L116.132 286.725L115.979 246.027L103.213 244.869L103.286 287.625Z" fill="url(#paint52_linear_422_12439)"/>
<path d="M110.436 288.742L110.308 243.888L109.052 243.767L109.172 288.839L110.436 288.742Z" fill="white"/>
<path d="M101.802 275.145L117.144 274.789L117.138 273.202L101.799 273.462L101.802 275.145Z" fill="white"/>
<path d="M101.777 258.58L117.082 259.173L117.076 257.593L101.774 256.903L101.777 258.58Z" fill="white"/>
<path d="M20.7404 259.034L20.5403 299.98L66.7492 300.558L67.1877 258.127L20.7404 259.034Z" fill="white"/>
<path d="M21.7754 260.394L21.5787 299.991L65.4137 300.541L65.8321 259.58L21.7754 260.394Z" fill="#97A6B7"/>
<path d="M18.8532 262.052L68.9497 261.192L69.0063 255.706L18.8766 256.774L18.8532 262.052Z" fill="#D8DEE8"/>
<path d="M19.455 266.4L68.2294 265.728L68.2761 261.204L19.4766 262.042L19.455 266.4Z" fill="white"/>
<g opacity="0.5">
<path d="M19.4699 263.418L68.2611 262.633L68.2677 261.917L19.4732 262.731L19.4699 263.418Z" fill="#D8DEE8"/>
<path d="M19.4615 265.024L68.2426 264.299L68.251 263.584L19.4648 264.336L19.4615 265.024Z" fill="#D8DEE8"/>
</g>
<path d="M-38.3117 260.187L-38.23 299.242L3.75457 299.768L3.87126 259.363L-38.3117 260.187Z" fill="white"/>
<path d="M-37.3599 261.484L-37.2865 299.254L2.74596 299.756L2.85432 260.742L-37.3599 261.484Z" fill="#97A6B7"/>
<path d="M-40.0104 263.064L5.69171 262.279L5.70838 257.054L-40.0204 258.029L-40.0104 263.064Z" fill="#D8DEE8"/>
<path d="M-39.2434 267.208L4.86499 266.6L4.87833 262.292L-39.2534 263.05L-39.2434 267.208Z" fill="white"/>
<g opacity="0.5">
<path d="M-39.1085 264.353L4.93989 263.648L4.9749 262.964L-39.1102 263.696L-39.1085 264.353Z" fill="#D8DEE8"/>
<path d="M-39.1049 265.883L4.93682 265.235L4.97183 264.551L-39.1066 265.228L-39.1049 265.883Z" fill="#D8DEE8"/>
</g>
<path d="M-15.561 334.608L32.3299 336.924V288.696L-15.561 291.012V334.608Z" fill="url(#paint53_linear_422_12439)"/>
<path d="M32.3298 336.924L49.5037 333.623V291.775L32.3298 288.696V336.924Z" fill="url(#paint54_linear_422_12439)"/>
<path d="M16.9779 289.517V297.057L4.15833 297.617V290.292L16.9779 289.517Z" fill="white"/>
<path d="M45.8295 291.117L38.6362 289.827V297.253L45.8295 298.034V291.117Z" fill="white"/>
<path d="M-8.66113 338.695L3.4683 336.364V306.806L-8.66113 304.632V338.695Z" fill="url(#paint55_linear_422_12439)"/>
<path d="M0.872849 306.34L-4.20831 305.43V310.675L0.872849 311.227V306.34Z" fill="white"/>
<path d="M-1.64471 342.197L22.6142 343.371V318.94L-1.64471 320.114V342.197Z" fill="url(#paint56_linear_422_12439)"/>
<path d="M22.6143 343.371L31.313 341.699V320.501L22.6143 318.94V343.371Z" fill="url(#paint57_linear_422_12439)"/>
<path d="M14.8373 319.355V323.175L8.34412 323.46V319.749L14.8373 319.355Z" fill="white"/>
<path d="M29.4526 320.167L25.8085 319.514V323.275L29.4526 323.67V320.167Z" fill="white"/>
<path d="M140.488 372.956L162.726 372.046L156.568 357.621L142.241 358.466L138.407 364.736L140.488 372.956Z" fill="url(#paint58_linear_422_12439)"/>
<path d="M119.625 350.025C119.477 350.025 119.33 350.035 119.185 350.05L116.874 350.025L116.888 350.931C114.649 352.489 113.095 355.898 113.095 359.856C113.095 363.969 114.774 367.491 117.156 368.958L117.168 369.688H119.627C123.232 369.688 126.156 365.287 126.156 359.858C126.155 354.426 123.231 350.025 119.625 350.025Z" fill="url(#paint59_linear_422_12439)"/>
<path d="M116.874 369.687C120.48 369.687 123.404 365.285 123.404 359.856C123.404 354.427 120.48 350.025 116.874 350.025C113.268 350.025 110.344 354.427 110.344 359.856C110.344 365.285 113.268 369.687 116.874 369.687Z" fill="url(#paint60_linear_422_12439)"/>
<path d="M183.436 357.491C183.254 357.491 183.076 357.502 182.898 357.519L180.067 357.491L180.084 358.506C177.341 360.253 175.438 364.072 175.438 368.505C175.438 373.113 177.495 377.059 180.412 378.701L180.425 379.517H183.438C187.856 379.517 191.438 374.586 191.438 368.503C191.436 362.422 187.856 357.491 183.436 357.491Z" fill="url(#paint61_linear_422_12439)"/>
<path d="M180.067 379.519C184.485 379.519 188.067 374.588 188.067 368.505C188.067 362.422 184.485 357.491 180.067 357.491C175.649 357.491 172.067 362.422 172.067 368.505C172.067 374.588 175.649 379.519 180.067 379.519Z" fill="url(#paint62_linear_422_12439)"/>
<path d="M153.014 362.605C152.836 362.605 152.659 362.617 152.484 362.633L149.697 362.605L149.713 363.645C147.013 365.436 145.139 369.352 145.139 373.896C145.139 378.62 147.164 382.665 150.037 384.348L150.05 385.187H153.016C157.365 385.187 160.891 380.132 160.891 373.896C160.891 367.659 157.363 362.605 153.014 362.605Z" fill="url(#paint63_linear_422_12439)"/>
<path d="M149.697 385.187C154.046 385.187 157.572 380.132 157.572 373.896C157.572 367.66 154.046 362.605 149.697 362.605C145.348 362.605 141.822 367.66 141.822 373.896C141.822 380.132 145.348 385.187 149.697 385.187Z" fill="url(#paint64_linear_422_12439)"/>
<path d="M148.59 380.239C151.033 380.239 153.014 377.4 153.014 373.896C153.014 370.393 151.033 367.553 148.59 367.553C146.146 367.553 144.165 370.393 144.165 373.896C144.165 377.4 146.146 380.239 148.59 380.239Z" fill="#D8DEE8"/>
<path d="M149.258 379.786C151.332 379.786 153.014 377.149 153.014 373.897C153.014 370.644 151.332 368.007 149.258 368.007C147.184 368.007 145.502 370.644 145.502 373.897C145.502 377.149 147.184 379.786 149.258 379.786Z" fill="url(#paint65_linear_422_12439)"/>
<path d="M74.4694 350.025V361.778C74.4694 364.845 77.155 367.223 80.2007 366.848L108.779 363.338V350.025H74.4694Z" fill="url(#paint66_linear_422_12439)"/>
<path d="M87.3358 348.394L95.1809 360.586C96.3029 362.33 98.1433 363.482 100.2 363.729L126.155 366.848L128.14 353.723L87.3358 348.394Z" fill="url(#paint67_linear_422_12439)"/>
<path d="M89.1448 354.333C88.9965 354.333 88.8498 354.344 88.7047 354.359L86.3942 354.333L86.4075 355.239C84.1687 356.797 82.615 360.206 82.615 364.164C82.615 368.277 84.2937 371.799 86.6759 373.266L86.6876 373.996H89.1465C92.7523 373.996 95.6763 369.595 95.6763 364.166C95.6746 358.734 92.7506 354.333 89.1448 354.333Z" fill="url(#paint68_linear_422_12439)"/>
<path d="M86.3941 373.995C90.0004 373.995 92.9239 369.593 92.9239 364.164C92.9239 358.735 90.0004 354.333 86.3941 354.333C82.7878 354.333 79.8643 358.735 79.8643 364.164C79.8643 369.593 82.7878 373.995 86.3941 373.995Z" fill="url(#paint69_linear_422_12439)"/>
<path d="M85.4756 369.686C87.5021 369.686 89.1448 367.214 89.1448 364.164C89.1448 361.113 87.5021 358.641 85.4756 358.641C83.4492 358.641 81.8065 361.113 81.8065 364.164C81.8065 367.214 83.4492 369.686 85.4756 369.686Z" fill="#D8DEE8"/>
<path d="M86.0306 369.292C87.7504 369.292 89.1447 366.996 89.1447 364.164C89.1447 361.332 87.7504 359.036 86.0306 359.036C84.3108 359.036 82.9166 361.332 82.9166 364.164C82.9166 366.996 84.3108 369.292 86.0306 369.292Z" fill="url(#paint70_linear_422_12439)"/>
<path d="M117.484 357.621L64.1735 350.237C63.2967 350.116 62.6432 349.366 62.6432 348.48V301.511C62.6432 300.553 63.405 299.768 64.3619 299.738L117.484 298.101V357.621Z" fill="url(#paint71_linear_422_12439)"/>
<path d="M159.33 354.333L117.484 357.621V298.102L157.252 300.201C158.417 300.263 159.33 301.224 159.33 302.391V354.333Z" fill="url(#paint72_linear_422_12439)"/>
<path opacity="0.3" d="M98.2514 320.889C90.503 311.122 75.0978 318.328 67.3227 307.374C65.5706 304.905 64.3504 302.387 63.5018 300.001C62.9884 300.313 62.6433 300.871 62.6433 301.511V348.48C62.6433 349.366 63.2968 350.116 64.1737 350.237L112.418 356.919C109.372 353.59 106.313 349.337 104.099 344.021C99.2383 332.348 103.311 327.267 98.2514 320.889Z" fill="url(#paint73_linear_422_12439)"/>
<path d="M125.573 322.73C124.129 329.209 120.762 347.904 124.519 367.993C124.799 369.489 126 370.642 127.502 370.882L140.486 372.956C140.486 372.956 140.616 360.663 146.854 359.856C153.093 359.05 158.941 364.898 159.331 375.035C159.331 375.035 172.845 376.854 193.248 372.176C193.248 372.176 195.977 371.591 197.148 368.505L196.226 354.367C196.151 353.207 195.612 352.125 194.732 351.364L182.723 340.987C182.723 340.987 171.807 325.522 168.168 322.533C168.168 322.533 166.219 319.414 150.494 319.024C139.665 318.755 132.208 319.472 128.614 319.946C127.115 320.144 125.903 321.253 125.573 322.73Z" fill="url(#paint74_linear_422_12439)"/>
<path opacity="0.6" d="M195.535 352.29L194.939 352.943C195.199 360.22 196.776 362.794 183.438 364.166C170.1 365.538 170.508 354.335 170.508 354.335L153.016 346.707L138.409 323.705C135.51 321.369 130.444 320.731 127.01 320.583C126.298 321.086 125.775 321.839 125.576 322.731C124.132 329.211 120.765 347.905 124.523 367.995C124.803 369.49 126.003 370.644 127.505 370.884L140.49 372.958C140.49 372.958 140.62 360.665 146.858 359.858C153.096 359.051 158.944 364.899 159.334 375.037C159.334 375.037 172.849 376.855 193.252 372.178C193.252 372.178 195.981 371.593 197.151 368.507L196.229 354.369C196.177 353.618 195.936 352.907 195.535 352.29Z" fill="url(#paint75_linear_422_12439)"/>
<path d="M152.836 343.349C153.309 344.125 154.193 344.554 155.096 344.442L182.794 341.046L182.723 340.985C182.723 340.985 173.664 328.152 169.3 323.607L143.759 325.144C142.878 325.198 142.372 326.168 142.83 326.92L152.836 343.349Z" fill="url(#paint76_linear_422_12439)"/>
<path opacity="0.3" d="M169.328 334.724C161.786 331.758 155.52 335.272 150.334 331.126C148.338 329.531 147.149 327.317 146.448 324.983L143.759 325.145C142.878 325.198 142.372 326.169 142.83 326.92L152.834 343.349C153.308 344.126 154.191 344.555 155.095 344.443L178.078 341.626C175.061 337.703 171.953 335.756 169.328 334.724Z" fill="white"/>
<path d="M193.807 354.165C193.778 353.913 193.567 353.722 193.313 353.725C186.412 353.785 177.733 355.237 174.859 355.754C174.317 355.851 173.96 356.379 174.085 356.916C174.647 359.313 175.579 360.935 176.266 361.877C176.733 362.517 177.45 362.921 178.24 362.982C180.412 363.152 185.228 363.442 187.564 362.887C189.641 362.392 191.629 361.407 192.698 360.822C193.32 360.482 193.76 359.877 193.868 359.175C194.13 357.478 193.915 355.13 193.807 354.165Z" fill="url(#paint77_linear_422_12439)"/>
<path d="M160.034 354.83C159.841 354.436 160.026 353.961 160.438 353.809C161.048 353.584 161.883 353.324 162.368 353.381C163.005 353.456 168.384 354.853 170.847 355.498C171.607 355.696 172.132 356.402 172.08 357.185C171.97 358.861 171.337 361.514 168.461 361.811C164.467 362.225 161.943 358.702 160.034 354.83Z" fill="url(#paint78_linear_422_12439)"/>
<path d="M185.907 364.736C175.436 366.198 173.312 362.606 173.312 362.606C170.835 362.974 167.312 362.489 165.317 362.141C164.557 362.009 163.818 362.369 163.393 363.014C163.075 363.496 162.496 363.984 161.443 364.164C159.724 364.461 156.798 363.806 155.366 363.437C157.452 366.3 158.912 370.011 159.104 375.018C159.104 375.018 172.847 376.854 193.25 372.174C193.25 372.174 195.979 371.589 197.149 368.504L196.547 359.283C195.477 360.92 192.682 363.789 185.907 364.736Z" fill="url(#paint79_linear_422_12439)"/>
<path opacity="0.6" d="M168.878 366.555C167.719 366.443 166.73 367.37 166.757 368.534C166.812 371.021 166.557 373.623 166.334 375.382C172.262 375.395 181.637 374.838 193.25 372.176C193.25 372.176 195.979 371.591 197.149 368.505L196.799 363.132C188.432 367.873 174.35 367.085 168.878 366.555Z" fill="url(#paint80_linear_422_12439)"/>
<path d="M130.039 326.489L133.8 327.399C135.03 327.697 136.105 328.439 136.82 329.483L146.133 343.066C146.768 343.993 145.948 345.221 144.847 344.988L128.712 341.574C128.062 341.437 127.587 340.878 127.558 340.215C127.457 337.888 127.35 332.37 128.262 327.639C128.422 326.819 129.227 326.292 130.039 326.489Z" fill="url(#paint81_linear_422_12439)"/>
</g>
</g>
</g>
<g opacity="0.6" filter="url(#filter0_b_422_12439)">
<rect y="350" width="289" height="45" fill="url(#paint82_linear_422_12439)"/>
</g>
<path d="M17.17 379H19.096V366.4H17.17V379ZM21.2615 379H23.0255V374.626C23.0255 372.88 24.0515 371.422 25.7975 371.422C27.1655 371.422 28.2275 372.484 28.2275 374.104V379H29.9915V374.104C29.9915 371.638 28.4255 369.658 25.9595 369.658C24.6635 369.658 23.6915 370.234 23.0255 371.116V369.874H21.2615V379ZM34.6976 379H36.6236L40.5296 369.874H38.6036L35.6516 376.75L32.7176 369.874H30.7916L34.6976 379ZM45.8357 379.198C47.5637 379.198 49.1477 378.37 49.9937 376.984L48.4457 376.228C47.8337 377.02 46.8797 377.434 45.8357 377.434C44.3777 377.434 43.1897 376.48 42.8477 375.184H50.2817C50.5697 371.656 48.2297 369.658 45.6377 369.658C42.9917 369.658 40.9757 371.782 40.9757 374.428C40.9757 377.074 43.1357 379.198 45.8357 379.198ZM42.8657 373.582C43.1897 372.322 44.2517 371.422 45.6377 371.422C47.0417 371.422 48.1217 372.196 48.4277 373.582H42.8657ZM51.9177 379H53.6817V374.626C53.6817 372.88 54.7077 371.422 56.4537 371.422C57.8217 371.422 58.8837 372.484 58.8837 374.104V379H60.6477V374.104C60.6477 371.638 59.0817 369.658 56.6157 369.658C55.3197 369.658 54.3477 370.234 53.6817 371.116V369.874H51.9177V379ZM66.551 379.144C67.289 379.144 67.973 378.856 68.477 378.406L67.523 377.002C67.307 377.2 66.947 377.38 66.551 377.38C65.363 377.38 65.345 376.372 65.345 375.76V371.476H67.829V369.874H65.345V367.84H63.581V369.874H61.907V371.476H63.581V375.76C63.581 377.848 64.463 379.144 66.551 379.144ZM73.9607 379.198C76.6067 379.198 78.8207 377.074 78.8207 374.428C78.8207 371.782 76.6067 369.658 73.9607 369.658C71.3147 369.658 69.1007 371.782 69.1007 374.428C69.1007 377.074 71.3147 379.198 73.9607 379.198ZM70.8827 374.428C70.8827 372.754 72.2867 371.422 73.9607 371.422C75.6347 371.422 77.0567 372.754 77.0567 374.428C77.0567 376.102 75.6347 377.434 73.9607 377.434C72.2867 377.434 70.8827 376.102 70.8827 374.428ZM80.447 379H82.211V375.274C82.211 372.394 83.345 371.44 85.307 371.44V369.676C83.921 369.676 82.877 370.252 82.211 371.35V369.874H80.447V379ZM88.3035 383.284H90.2295L95.9535 369.874H94.0455L91.0935 376.75L88.1415 369.874H86.2155L90.1395 379L88.3035 383.284ZM101.809 379H103.735V369.604L106.867 374.5H108.001L111.151 369.604V379H113.077V366.4H111.061L107.443 372.142L103.825 366.4H101.809V379ZM119.572 379.198C120.958 379.198 122.092 378.622 122.902 377.758V379H124.666V369.874H122.902V371.098C122.092 370.252 120.958 369.658 119.572 369.658C116.926 369.658 114.874 371.782 114.874 374.428C114.874 377.074 116.926 379.198 119.572 379.198ZM116.656 374.428C116.656 372.754 118.06 371.422 119.734 371.422C121.408 371.422 122.83 372.754 122.83 374.428C122.83 376.102 121.408 377.434 119.734 377.434C118.06 377.434 116.656 376.102 116.656 374.428ZM126.642 379H128.406V374.626C128.406 372.88 129.432 371.422 131.178 371.422C132.546 371.422 133.608 372.484 133.608 374.104V379H135.372V374.104C135.372 371.638 133.806 369.658 131.34 369.658C130.044 369.658 129.072 370.234 128.406 371.116V369.874H126.642V379ZM141.685 379.198C143.071 379.198 144.205 378.622 145.015 377.758V379H146.779V369.874H145.015V371.098C144.205 370.252 143.071 369.658 141.685 369.658C139.039 369.658 136.987 371.782 136.987 374.428C136.987 377.074 139.039 379.198 141.685 379.198ZM138.769 374.428C138.769 372.754 140.173 371.422 141.847 371.422C143.521 371.422 144.943 372.754 144.943 374.428C144.943 376.102 143.521 377.434 141.847 377.434C140.173 377.434 138.769 376.102 138.769 374.428ZM153.562 383.266C156.208 383.266 158.17 381.574 158.17 378.658V369.874H156.424V371.098C155.596 370.252 154.462 369.658 153.094 369.658C150.448 369.658 148.396 371.782 148.396 374.428C148.396 377.074 150.448 379.198 153.094 379.198C154.462 379.198 155.596 378.622 156.424 377.758V378.658C156.424 380.602 155.236 381.502 153.562 381.502C152.356 381.502 151.276 380.98 150.736 380.134L149.134 380.908C149.962 382.33 151.672 383.266 153.562 383.266ZM150.16 374.428C150.16 372.754 151.582 371.422 153.256 371.422C154.93 371.422 156.334 372.754 156.334 374.428C156.334 376.102 154.93 377.434 153.256 377.434C151.582 377.434 150.16 376.102 150.16 374.428ZM164.646 379.198C166.374 379.198 167.958 378.37 168.804 376.984L167.256 376.228C166.644 377.02 165.69 377.434 164.646 377.434C163.188 377.434 162 376.48 161.658 375.184H169.092C169.38 371.656 167.04 369.658 164.448 369.658C161.802 369.658 159.786 371.782 159.786 374.428C159.786 377.074 161.946 379.198 164.646 379.198ZM161.676 373.582C162 372.322 163.062 371.422 164.448 371.422C165.852 371.422 166.932 372.196 167.238 373.582H161.676ZM170.728 379H172.492V374.464C172.492 372.862 173.248 371.422 174.94 371.422C176.308 371.422 177.136 372.628 177.136 373.96V379H178.9V374.464C178.9 372.862 179.656 371.422 181.348 371.422C182.716 371.422 183.544 372.628 183.544 373.96V379H185.308V373.96C185.308 371.782 183.994 369.658 181.51 369.658C180.088 369.658 178.972 370.396 178.252 371.476C177.64 370.414 176.578 369.658 175.102 369.658C173.95 369.658 173.086 370.162 172.492 370.936V369.874H170.728V379ZM191.787 379.198C193.515 379.198 195.099 378.37 195.945 376.984L194.397 376.228C193.785 377.02 192.831 377.434 191.787 377.434C190.329 377.434 189.141 376.48 188.799 375.184H196.233C196.521 371.656 194.181 369.658 191.589 369.658C188.943 369.658 186.927 371.782 186.927 374.428C186.927 377.074 189.087 379.198 191.787 379.198ZM188.817 373.582C189.141 372.322 190.203 371.422 191.589 371.422C192.993 371.422 194.073 372.196 194.379 373.582H188.817ZM197.869 379H199.633V374.626C199.633 372.88 200.659 371.422 202.405 371.422C203.773 371.422 204.835 372.484 204.835 374.104V379H206.599V374.104C206.599 371.638 205.033 369.658 202.567 369.658C201.271 369.658 200.299 370.234 199.633 371.116V369.874H197.869V379ZM212.502 379.144C213.24 379.144 213.924 378.856 214.428 378.406L213.474 377.002C213.258 377.2 212.898 377.38 212.502 377.38C211.314 377.38 211.296 376.372 211.296 375.76V371.476H213.78V369.874H211.296V367.84H209.532V369.874H207.858V371.476H209.532V375.76C209.532 377.848 210.414 379.144 212.502 379.144Z" fill="white"/>
<circle cx="260.97" cy="372.97" r="11.5" transform="rotate(-135 260.97 372.97)" stroke="#87C754"/>
<path d="M257.643 369.443V370.616L262.289 370.62L257.227 375.682L258.059 376.514L263.121 371.452L263.117 376.098H264.298V369.443H257.643Z" fill="#87C754"/>
</g>
<defs>
<filter id="filter0_b_422_12439" x="-193" y="157" width="675" height="431" filterUnits="userSpaceOnUse" color-interpolation-filters="sRGB">
<feFlood flood-opacity="0" result="BackgroundImageFix"/>
<feGaussianBlur in="BackgroundImageFix" stdDeviation="96.5"/>
<feComposite in2="SourceAlpha" operator="in" result="effect1_backgroundBlur_422_12439"/>
<feBlend mode="normal" in="SourceGraphic" in2="effect1_backgroundBlur_422_12439" result="shape"/>
</filter>
<linearGradient id="paint0_linear_422_12439" x1="317.59" y1="417.168" x2="99.2646" y2="58.1239" gradientUnits="userSpaceOnUse">
<stop stop-color="#FF9085"/>
<stop offset="1" stop-color="#FB6FBB"/>
</linearGradient>
<linearGradient id="paint1_linear_422_12439" x1="327.112" y1="410.372" x2="112.293" y2="57.0953" gradientUnits="userSpaceOnUse">
<stop stop-color="#FF9085"/>
<stop offset="1" stop-color="#FB6FBB"/>
</linearGradient>
<linearGradient id="paint2_linear_422_12439" x1="195.683" y1="8.54838" x2="221.6" y2="75.304" gradientUnits="userSpaceOnUse">
<stop stop-color="#FFC444"/>
<stop offset="0.3138" stop-color="#FBA94A"/>
<stop offset="0.9964" stop-color="#F36F56"/>
</linearGradient>
<linearGradient id="paint3_linear_422_12439" x1="186.403" y1="12.1516" x2="212.32" y2="78.9074" gradientUnits="userSpaceOnUse">
<stop stop-color="#FFC444"/>
<stop offset="0.3138" stop-color="#FBA94A"/>
<stop offset="0.9964" stop-color="#F36F56"/>
</linearGradient>
<linearGradient id="paint4_linear_422_12439" x1="83.3435" y1="87.219" x2="160.974" y2="87.219" gradientUnits="userSpaceOnUse">
<stop stop-color="#311944"/>
<stop offset="1" stop-color="#6B3976"/>
</linearGradient>
<linearGradient id="paint5_linear_422_12439" x1="120.692" y1="116.435" x2="120.692" y2="47.8983" gradientUnits="userSpaceOnUse">
<stop stop-color="#AA80F9"/>
<stop offset="0.9964" stop-color="#6165D7"/>
</linearGradient>
<linearGradient id="paint6_linear_422_12439" x1="125.297" y1="116.435" x2="125.297" y2="47.8983" gradientUnits="userSpaceOnUse">
<stop stop-color="#AA80F9"/>
<stop offset="0.9964" stop-color="#6165D7"/>
</linearGradient>
<linearGradient id="paint7_linear_422_12439" x1="129.902" y1="116.435" x2="129.902" y2="47.8983" gradientUnits="userSpaceOnUse">
<stop stop-color="#AA80F9"/>
<stop offset="0.9964" stop-color="#6165D7"/>
</linearGradient>
<linearGradient id="paint8_linear_422_12439" x1="134.508" y1="116.435" x2="134.508" y2="47.8983" gradientUnits="userSpaceOnUse">
<stop stop-color="#AA80F9"/>
<stop offset="0.9964" stop-color="#6165D7"/>
</linearGradient>
<linearGradient id="paint9_linear_422_12439" x1="143.719" y1="116.435" x2="143.719" y2="47.8983" gradientUnits="userSpaceOnUse">
<stop stop-color="#AA80F9"/>
<stop offset="0.9964" stop-color="#6165D7"/>
</linearGradient>
<linearGradient id="paint10_linear_422_12439" x1="139.113" y1="116.435" x2="139.113" y2="47.8983" gradientUnits="userSpaceOnUse">
<stop stop-color="#AA80F9"/>
<stop offset="0.9964" stop-color="#6165D7"/>
</linearGradient>
<linearGradient id="paint11_linear_422_12439" x1="148.324" y1="116.435" x2="148.324" y2="47.8983" gradientUnits="userSpaceOnUse">
<stop stop-color="#AA80F9"/>
<stop offset="0.9964" stop-color="#6165D7"/>
</linearGradient>
<linearGradient id="paint12_linear_422_12439" x1="152.929" y1="116.435" x2="152.929" y2="47.8983" gradientUnits="userSpaceOnUse">
<stop stop-color="#AA80F9"/>
<stop offset="0.9964" stop-color="#6165D7"/>
</linearGradient>
<linearGradient id="paint13_linear_422_12439" x1="118.389" y1="116.435" x2="118.389" y2="47.898" gradientUnits="userSpaceOnUse">
<stop stop-color="#AA80F9"/>
<stop offset="0.9964" stop-color="#6165D7"/>
</linearGradient>
<linearGradient id="paint14_linear_422_12439" x1="83.8495" y1="116.435" x2="83.8495" y2="47.8983" gradientUnits="userSpaceOnUse">
<stop stop-color="#AA80F9"/>
<stop offset="0.9964" stop-color="#6165D7"/>
</linearGradient>
<linearGradient id="paint15_linear_422_12439" x1="88.455" y1="116.435" x2="88.455" y2="47.8983" gradientUnits="userSpaceOnUse">
<stop stop-color="#AA80F9"/>
<stop offset="0.9964" stop-color="#6165D7"/>
</linearGradient>
<linearGradient id="paint16_linear_422_12439" x1="93.0603" y1="116.435" x2="93.0603" y2="47.8983" gradientUnits="userSpaceOnUse">
<stop stop-color="#AA80F9"/>
<stop offset="0.9964" stop-color="#6165D7"/>
</linearGradient>
<linearGradient id="paint17_linear_422_12439" x1="97.6654" y1="116.435" x2="97.6654" y2="47.8983" gradientUnits="userSpaceOnUse">
<stop stop-color="#AA80F9"/>
<stop offset="0.9964" stop-color="#6165D7"/>
</linearGradient>
<linearGradient id="paint18_linear_422_12439" x1="102.271" y1="116.435" x2="102.271" y2="47.8983" gradientUnits="userSpaceOnUse">
<stop stop-color="#AA80F9"/>
<stop offset="0.9964" stop-color="#6165D7"/>
</linearGradient>
<linearGradient id="paint19_linear_422_12439" x1="106.876" y1="116.435" x2="106.876" y2="47.8983" gradientUnits="userSpaceOnUse">
<stop stop-color="#AA80F9"/>
<stop offset="0.9964" stop-color="#6165D7"/>
</linearGradient>
<linearGradient id="paint20_linear_422_12439" x1="111.481" y1="116.435" x2="111.481" y2="47.8983" gradientUnits="userSpaceOnUse">
<stop stop-color="#AA80F9"/>
<stop offset="0.9964" stop-color="#6165D7"/>
</linearGradient>
<linearGradient id="paint21_linear_422_12439" x1="116.087" y1="116.435" x2="116.087" y2="47.8983" gradientUnits="userSpaceOnUse">
<stop stop-color="#AA80F9"/>
<stop offset="0.9964" stop-color="#6165D7"/>
</linearGradient>
<linearGradient id="paint22_linear_422_12439" x1="118.389" y1="116.435" x2="118.389" y2="47.8984" gradientUnits="userSpaceOnUse">
<stop stop-color="#AA80F9"/>
<stop offset="0.9964" stop-color="#6165D7"/>
</linearGradient>
<linearGradient id="paint23_linear_422_12439" x1="-16.9928" y1="102.475" x2="163.456" y2="102.475" gradientUnits="userSpaceOnUse">
<stop stop-color="#AA80F9"/>
<stop offset="0.9964" stop-color="#6165D7"/>
</linearGradient>
<linearGradient id="paint24_linear_422_12439" x1="29.5708" y1="106.294" x2="-30.9446" y2="129.523" gradientUnits="userSpaceOnUse">
<stop stop-color="#AA80F9"/>
<stop offset="0.9964" stop-color="#6165D7"/>
</linearGradient>
<linearGradient id="paint25_linear_422_12439" x1="99.7278" y1="88.0913" x2="64.8288" y2="123.637" gradientUnits="userSpaceOnUse">
<stop stop-color="#AA80F9"/>
<stop offset="0.9964" stop-color="#6165D7"/>
</linearGradient>
<linearGradient id="paint26_linear_422_12439" x1="54.0024" y1="109.708" x2="64.1902" y2="109.708" gradientUnits="userSpaceOnUse">
<stop stop-color="#311944"/>
<stop offset="1" stop-color="#6B3976"/>
</linearGradient>
<linearGradient id="paint27_linear_422_12439" x1="7.89106" y1="109.708" x2="18.0789" y2="109.708" gradientUnits="userSpaceOnUse">
<stop stop-color="#311944"/>
<stop offset="1" stop-color="#6B3976"/>
</linearGradient>
<linearGradient id="paint28_linear_422_12439" x1="91.927" y1="75.7596" x2="55.841" y2="112.514" gradientUnits="userSpaceOnUse">
<stop stop-color="#AA80F9"/>
<stop offset="0.9964" stop-color="#6165D7"/>
</linearGradient>
<linearGradient id="paint29_linear_422_12439" x1="198.357" y1="212.322" x2="334.422" y2="212.322" gradientUnits="userSpaceOnUse">
<stop stop-color="#444B8C"/>
<stop offset="0.9964" stop-color="#26264F"/>
</linearGradient>
<linearGradient id="paint30_linear_422_12439" x1="276.399" y1="217.165" x2="302.12" y2="217.165" gradientUnits="userSpaceOnUse">
<stop stop-color="#444B8C"/>
<stop offset="0.9964" stop-color="#26264F"/>
</linearGradient>
<linearGradient id="paint31_linear_422_12439" x1="205.019" y1="207.857" x2="212.324" y2="207.857" gradientUnits="userSpaceOnUse">
<stop stop-color="#311944"/>
<stop offset="1" stop-color="#6B3976"/>
</linearGradient>
<linearGradient id="paint32_linear_422_12439" x1="203.48" y1="207.857" x2="210.785" y2="207.857" gradientUnits="userSpaceOnUse">
<stop stop-color="#311944"/>
<stop offset="1" stop-color="#6B3976"/>
</linearGradient>
<linearGradient id="paint33_linear_422_12439" x1="210.596" y1="208.35" x2="204.892" y2="207.582" gradientUnits="userSpaceOnUse">
<stop offset="0.00540541" stop-color="#D8DEE8"/>
<stop offset="1" stop-color="#F4F7FA"/>
</linearGradient>
<linearGradient id="paint34_linear_422_12439" x1="213.302" y1="209.142" x2="221.306" y2="209.142" gradientUnits="userSpaceOnUse">
<stop stop-color="#311944"/>
<stop offset="1" stop-color="#6B3976"/>
</linearGradient>
<linearGradient id="paint35_linear_422_12439" x1="211.616" y1="209.142" x2="219.62" y2="209.142" gradientUnits="userSpaceOnUse">
<stop stop-color="#311944"/>
<stop offset="1" stop-color="#6B3976"/>
</linearGradient>
<linearGradient id="paint36_linear_422_12439" x1="219.413" y1="209.682" x2="213.162" y2="208.841" gradientUnits="userSpaceOnUse">
<stop offset="0.00540541" stop-color="#D8DEE8"/>
<stop offset="1" stop-color="#F4F7FA"/>
</linearGradient>
<linearGradient id="paint37_linear_422_12439" x1="222.148" y1="209.763" x2="230.887" y2="209.763" gradientUnits="userSpaceOnUse">
<stop stop-color="#311944"/>
<stop offset="1" stop-color="#6B3976"/>
</linearGradient>
<linearGradient id="paint38_linear_422_12439" x1="220.307" y1="209.763" x2="229.047" y2="209.763" gradientUnits="userSpaceOnUse">
<stop stop-color="#311944"/>
<stop offset="1" stop-color="#6B3976"/>
</linearGradient>
<linearGradient id="paint39_linear_422_12439" x1="228.82" y1="210.354" x2="221.996" y2="209.435" gradientUnits="userSpaceOnUse">
<stop offset="0.00540541" stop-color="#D8DEE8"/>
<stop offset="1" stop-color="#F4F7FA"/>
</linearGradient>
<linearGradient id="paint40_linear_422_12439" x1="263.424" y1="215.659" x2="274.581" y2="215.659" gradientUnits="userSpaceOnUse">
<stop stop-color="#311944"/>
<stop offset="1" stop-color="#6B3976"/>
</linearGradient>
<linearGradient id="paint41_linear_422_12439" x1="261.074" y1="215.659" x2="272.231" y2="215.659" gradientUnits="userSpaceOnUse">
<stop stop-color="#311944"/>
<stop offset="1" stop-color="#6B3976"/>
</linearGradient>
<linearGradient id="paint42_linear_422_12439" x1="271.942" y1="216.413" x2="263.23" y2="215.24" gradientUnits="userSpaceOnUse">
<stop offset="0.00540541" stop-color="#D8DEE8"/>
<stop offset="1" stop-color="#F4F7FA"/>
</linearGradient>
<linearGradient id="paint43_linear_422_12439" x1="270.476" y1="154.695" x2="126.575" y2="248.202" gradientUnits="userSpaceOnUse">
<stop stop-color="#FFC444"/>
<stop offset="0.3138" stop-color="#FBA94A"/>
<stop offset="0.9964" stop-color="#F36F56"/>
</linearGradient>
<linearGradient id="paint44_linear_422_12439" x1="366.694" y1="134.294" x2="257.508" y2="203.725" gradientUnits="userSpaceOnUse">
<stop stop-color="#FFC444"/>
<stop offset="0.3138" stop-color="#FBA94A"/>
<stop offset="0.9964" stop-color="#F36F56"/>
</linearGradient>
<linearGradient id="paint45_linear_422_12439" x1="189.99" y1="173.078" x2="282.459" y2="173.078" gradientUnits="userSpaceOnUse">
<stop stop-color="#FFC444"/>
<stop offset="0.9964" stop-color="#F36F56"/>
</linearGradient>
<linearGradient id="paint46_linear_422_12439" x1="119.257" y1="260.868" x2="-47.0385" y2="260.868" gradientUnits="userSpaceOnUse">
<stop stop-color="#D8DEE8"/>
<stop offset="1" stop-color="white"/>
</linearGradient>
<linearGradient id="paint47_linear_422_12439" x1="119.256" y1="232.026" x2="-46.8307" y2="232.026" gradientUnits="userSpaceOnUse">
<stop stop-color="#FFC444"/>
<stop offset="0.9964" stop-color="#F36F56"/>
</linearGradient>
<linearGradient id="paint48_linear_422_12439" x1="21.6939" y1="251.416" x2="22.1038" y2="265.217" gradientUnits="userSpaceOnUse">
<stop stop-color="#D8DEE8"/>
<stop offset="1" stop-color="white"/>
</linearGradient>
<linearGradient id="paint49_linear_422_12439" x1="143.801" y1="260.868" x2="92.0181" y2="260.868" gradientUnits="userSpaceOnUse">
<stop stop-color="#D8DEE8"/>
<stop offset="1" stop-color="white"/>
</linearGradient>
<linearGradient id="paint50_linear_422_12439" x1="120.34" y1="294.22" x2="117.878" y2="243.133" gradientUnits="userSpaceOnUse">
<stop stop-color="#D8DEE8"/>
<stop offset="1" stop-color="white"/>
</linearGradient>
<linearGradient id="paint51_linear_422_12439" x1="131.483" y1="242.755" x2="135.537" y2="315.369" gradientUnits="userSpaceOnUse">
<stop offset="0.00359712" stop-color="#E38DDD"/>
<stop offset="1" stop-color="#9571F6"/>
</linearGradient>
<linearGradient id="paint52_linear_422_12439" x1="108.143" y1="240.142" x2="112.61" y2="320.147" gradientUnits="userSpaceOnUse">
<stop offset="0.00359712" stop-color="#E38DDD"/>
<stop offset="1" stop-color="#9571F6"/>
</linearGradient>
<linearGradient id="paint53_linear_422_12439" x1="16.6897" y1="293.574" x2="-19.1201" y2="381.506" gradientUnits="userSpaceOnUse">
<stop stop-color="#FFC444"/>
<stop offset="0.3138" stop-color="#FBA94A"/>
<stop offset="0.9964" stop-color="#F36F56"/>
</linearGradient>
<linearGradient id="paint54_linear_422_12439" x1="61.201" y1="326.931" x2="29.7679" y2="307.434" gradientUnits="userSpaceOnUse">
<stop stop-color="#FFC444"/>
<stop offset="0.3138" stop-color="#FBA94A"/>
<stop offset="0.9964" stop-color="#F36F56"/>
</linearGradient>
<linearGradient id="paint55_linear_422_12439" x1="11.73" y1="331.637" x2="-10.4711" y2="317.866" gradientUnits="userSpaceOnUse">
<stop stop-color="#FFC444"/>
<stop offset="0.3138" stop-color="#FBA94A"/>
<stop offset="0.9964" stop-color="#F36F56"/>
</linearGradient>
<linearGradient id="paint56_linear_422_12439" x1="14.6913" y1="321.411" x2="-3.44785" y2="365.953" gradientUnits="userSpaceOnUse">
<stop stop-color="#FFC444"/>
<stop offset="0.3138" stop-color="#FBA94A"/>
<stop offset="0.9964" stop-color="#F36F56"/>
</linearGradient>
<linearGradient id="paint57_linear_422_12439" x1="37.2385" y1="338.308" x2="21.3163" y2="328.432" gradientUnits="userSpaceOnUse">
<stop stop-color="#FFC444"/>
<stop offset="0.3138" stop-color="#FBA94A"/>
<stop offset="0.9964" stop-color="#F36F56"/>
</linearGradient>
<linearGradient id="paint58_linear_422_12439" x1="138.408" y1="365.288" x2="162.726" y2="365.288" gradientUnits="userSpaceOnUse">
<stop stop-color="#444B8C"/>
<stop offset="0.9964" stop-color="#26264F"/>
</linearGradient>
<linearGradient id="paint59_linear_422_12439" x1="113.095" y1="359.856" x2="126.155" y2="359.856" gradientUnits="userSpaceOnUse">
<stop stop-color="#311944"/>
<stop offset="1" stop-color="#6B3976"/>
</linearGradient>
<linearGradient id="paint60_linear_422_12439" x1="110.344" y1="359.856" x2="123.404" y2="359.856" gradientUnits="userSpaceOnUse">
<stop stop-color="#311944"/>
<stop offset="1" stop-color="#6B3976"/>
</linearGradient>
<linearGradient id="paint61_linear_422_12439" x1="175.437" y1="368.504" x2="191.437" y2="368.504" gradientUnits="userSpaceOnUse">
<stop stop-color="#311944"/>
<stop offset="1" stop-color="#6B3976"/>
</linearGradient>
<linearGradient id="paint62_linear_422_12439" x1="172.066" y1="368.504" x2="188.067" y2="368.504" gradientUnits="userSpaceOnUse">
<stop stop-color="#311944"/>
<stop offset="1" stop-color="#6B3976"/>
</linearGradient>
<linearGradient id="paint63_linear_422_12439" x1="145.138" y1="373.895" x2="160.89" y2="373.895" gradientUnits="userSpaceOnUse">
<stop stop-color="#311944"/>
<stop offset="1" stop-color="#6B3976"/>
</linearGradient>
<linearGradient id="paint64_linear_422_12439" x1="141.821" y1="373.895" x2="157.572" y2="373.895" gradientUnits="userSpaceOnUse">
<stop stop-color="#311944"/>
<stop offset="1" stop-color="#6B3976"/>
</linearGradient>
<linearGradient id="paint65_linear_422_12439" x1="154.612" y1="373.317" x2="147.399" y2="374.097" gradientUnits="userSpaceOnUse">
<stop offset="0.00540541" stop-color="#D8DEE8"/>
<stop offset="1" stop-color="#F4F7FA"/>
</linearGradient>
<linearGradient id="paint66_linear_422_12439" x1="74.4698" y1="358.456" x2="108.778" y2="358.456" gradientUnits="userSpaceOnUse">
<stop stop-color="#444B8C"/>
<stop offset="0.9964" stop-color="#26264F"/>
</linearGradient>
<linearGradient id="paint67_linear_422_12439" x1="87.3356" y1="357.62" x2="128.141" y2="357.62" gradientUnits="userSpaceOnUse">
<stop stop-color="#444B8C"/>
<stop offset="0.9964" stop-color="#26264F"/>
</linearGradient>
<linearGradient id="paint68_linear_422_12439" x1="82.6143" y1="364.164" x2="95.6749" y2="364.164" gradientUnits="userSpaceOnUse">
<stop stop-color="#311944"/>
<stop offset="1" stop-color="#6B3976"/>
</linearGradient>
<linearGradient id="paint69_linear_422_12439" x1="79.8633" y1="364.164" x2="92.9238" y2="364.164" gradientUnits="userSpaceOnUse">
<stop stop-color="#311944"/>
<stop offset="1" stop-color="#6B3976"/>
</linearGradient>
<linearGradient id="paint70_linear_422_12439" x1="92.5455" y1="365.041" x2="82.4089" y2="363.676" gradientUnits="userSpaceOnUse">
<stop offset="0.00540541" stop-color="#D8DEE8"/>
<stop offset="1" stop-color="#F4F7FA"/>
</linearGradient>
<linearGradient id="paint71_linear_422_12439" x1="62.6438" y1="327.861" x2="117.485" y2="327.861" gradientUnits="userSpaceOnUse">
<stop stop-color="#FFC444"/>
<stop offset="0.9964" stop-color="#F36F56"/>
</linearGradient>
<linearGradient id="paint72_linear_422_12439" x1="117.485" y1="327.861" x2="159.331" y2="327.861" gradientUnits="userSpaceOnUse">
<stop stop-color="#FFC444"/>
<stop offset="0.9964" stop-color="#F36F56"/>
</linearGradient>
<linearGradient id="paint73_linear_422_12439" x1="62.6439" y1="328.459" x2="112.418" y2="328.459" gradientUnits="userSpaceOnUse">
<stop stop-color="#FFC444"/>
<stop offset="0.9964" stop-color="#F36F56"/>
</linearGradient>
<linearGradient id="paint74_linear_422_12439" x1="122.802" y1="347.174" x2="197.148" y2="347.174" gradientUnits="userSpaceOnUse">
<stop offset="0.00540541" stop-color="#D8DEE8"/>
<stop offset="1" stop-color="#F4F7FA"/>
</linearGradient>
<linearGradient id="paint75_linear_422_12439" x1="159.493" y1="348.503" x2="125.185" y2="402.824" gradientUnits="userSpaceOnUse">
<stop offset="0.00540541" stop-color="#D8DEE8"/>
<stop offset="1" stop-color="#F4F7FA"/>
</linearGradient>
<linearGradient id="paint76_linear_422_12439" x1="142.659" y1="334.034" x2="182.794" y2="334.034" gradientUnits="userSpaceOnUse">
<stop stop-color="#444B8C"/>
<stop offset="0.9964" stop-color="#26264F"/>
</linearGradient>
<linearGradient id="paint77_linear_422_12439" x1="184.122" y1="351.425" x2="183.733" y2="374.297" gradientUnits="userSpaceOnUse">
<stop stop-color="#444B8C"/>
<stop offset="0.9964" stop-color="#26264F"/>
</linearGradient>
<linearGradient id="paint78_linear_422_12439" x1="162.944" y1="350.304" x2="174.51" y2="370.707" gradientUnits="userSpaceOnUse">
<stop stop-color="#FCB148"/>
<stop offset="0.0521" stop-color="#FDBA46"/>
<stop offset="0.1424" stop-color="#FFC244"/>
<stop offset="0.3183" stop-color="#FFC444"/>
<stop offset="0.4849" stop-color="#FDB946"/>
<stop offset="0.7754" stop-color="#F99C4D"/>
<stop offset="0.8658" stop-color="#F8924F"/>
<stop offset="1" stop-color="#F8924F"/>
</linearGradient>
<linearGradient id="paint79_linear_422_12439" x1="155.365" y1="367.329" x2="197.148" y2="367.329" gradientUnits="userSpaceOnUse">
<stop stop-color="#444B8C"/>
<stop offset="0.9964" stop-color="#26264F"/>
</linearGradient>
<linearGradient id="paint80_linear_422_12439" x1="166.333" y1="369.256" x2="197.147" y2="369.256" gradientUnits="userSpaceOnUse">
<stop stop-color="#444B8C"/>
<stop offset="0.9964" stop-color="#26264F"/>
</linearGradient>
<linearGradient id="paint81_linear_422_12439" x1="127.495" y1="335.732" x2="146.357" y2="335.732" gradientUnits="userSpaceOnUse">
<stop stop-color="#444B8C"/>
<stop offset="0.9964" stop-color="#26264F"/>
</linearGradient>
<linearGradient id="paint82_linear_422_12439" x1="135.5" y1="395" x2="133.068" y2="267.893" gradientUnits="userSpaceOnUse">
<stop stop-color="#29292A" stop-opacity="0.29"/>
<stop offset="1" stop-color="white"/>
</linearGradient>
<clipPath id="clip0_422_12439">
<rect width="289" height="395" fill="white"/>
</clipPath>
<clipPath id="clip1_422_12439">
<rect width="467" height="466.773" fill="white" transform="translate(-68 -62)"/>
</clipPath>
</defs>
</svg>
