<svg width="603" height="96" viewBox="0 0 603 96" fill="none" xmlns="http://www.w3.org/2000/svg">
<path d="M24.2972 73.1602C39.5728 73.1602 48.1774 64.8456 48.1774 51.1169C48.1774 37.8716 36.8658 33.4243 27.391 30.1371C21.2034 28.0101 18.9798 26.1732 18.9798 22.7894C18.9798 20.179 20.9134 17.762 24.2972 17.762C27.6811 17.762 29.9047 20.0823 30.0014 22.6927L44.987 20.5657C43.9235 10.3175 35.3189 3.16313 23.9105 3.16313C12.2121 3.16313 3.22077 12.2511 3.22077 23.6595C3.22077 34.1977 8.73159 40.3853 18.6897 44.2526C27.4877 47.6364 31.5483 48.6999 31.5483 52.7605C31.5483 55.6609 29.1313 58.368 24.4906 58.368C18.3997 58.368 16.4661 54.4041 16.3694 50.8269L0.90043 52.2771C0.610387 63.9755 10.0851 73.1602 24.2972 73.1602ZM77.0684 73.1602C83.0627 73.1602 87.4133 70.9365 90.3137 67.2626V72H105.783V22.9827H90.3137V47.3463C90.3137 54.5007 86.2531 58.4647 80.549 58.4647C73.9747 58.4647 70.8809 53.2439 70.8809 47.5397V22.9827H55.4119V47.5397C55.4119 61.2684 61.8895 73.1602 77.0684 73.1602ZM114.516 95.0101H129.985V68.8095C133.659 71.5166 138.299 73.1602 143.52 73.1602C158.409 73.1602 167.98 61.2684 167.98 47.5397C167.98 33.7143 158.409 21.9192 143.52 21.9192C138.299 21.9192 133.659 23.5628 129.985 26.2699V22.9827H114.516V95.0101ZM131.145 47.5397C131.145 41.6422 135.882 36.8081 141.78 36.8081C147.677 36.8081 152.511 41.6422 152.511 47.5397C152.511 53.4372 147.677 58.1746 141.78 58.1746C135.882 58.1746 131.145 53.4372 131.145 47.5397ZM174.753 95.0101H190.221V68.8095C193.895 71.5166 198.536 73.1602 203.757 73.1602C218.646 73.1602 228.217 61.2684 228.217 47.5397C228.217 33.7143 218.646 21.9192 203.757 21.9192C198.536 21.9192 193.895 23.5628 190.221 26.2699V22.9827H174.753V95.0101ZM191.382 47.5397C191.382 41.6422 196.119 36.8081 202.017 36.8081C207.914 36.8081 212.748 41.6422 212.748 47.5397C212.748 53.4372 207.914 58.1746 202.017 58.1746C196.119 58.1746 191.382 53.4372 191.382 47.5397ZM234.989 72H250.458V0.0693345H234.989V72ZM265.637 95.0101H282.17L312.431 22.9827H295.222L284.103 50.0534L272.985 22.9827H255.776L275.692 70.4531L265.637 95.0101ZM373.32 73.1602C385.599 73.1602 396.524 66.7792 402.808 57.2078L388.499 47.6364C385.309 52.5671 379.701 55.951 373.32 55.951C363.362 55.951 355.338 48.0231 355.338 38.1616C355.338 28.3002 363.362 20.3723 373.32 20.3723C379.411 20.3723 384.922 23.4661 388.112 28.1068L402.421 18.5354C396.04 9.25403 385.405 3.16313 373.32 3.16313C353.887 3.16313 338.128 18.7288 338.128 38.1616C338.128 57.5945 353.887 73.1602 373.32 73.1602ZM408.146 72H423.615V47.7331C423.615 40.482 427.676 36.5181 433.38 36.5181C439.955 36.5181 443.048 41.7388 443.048 47.5397V72H458.517V47.5397C458.517 33.811 451.943 21.9192 436.861 21.9192C430.867 21.9192 426.516 24.0462 423.615 27.8168V0.0693345H408.146V72ZM489.777 73.1602C495.094 73.1602 499.638 71.5166 503.312 68.8095V72H518.781V22.9827H503.312V26.2699C499.638 23.5628 495.094 21.9192 489.777 21.9192C474.888 21.9192 465.317 33.7143 465.317 47.5397C465.317 61.2684 474.888 73.1602 489.777 73.1602ZM480.882 47.5397C480.882 41.6422 485.62 36.8081 491.517 36.8081C497.415 36.8081 502.152 41.6422 502.152 47.5397C502.152 53.4372 497.415 58.1746 491.517 58.1746C485.62 58.1746 480.882 53.4372 480.882 47.5397ZM527.68 72H543.246V22.9827H527.68V72ZM527.004 8.67394C527.004 13.4113 530.774 17.1819 535.512 17.1819C540.152 17.1819 543.923 13.4113 543.923 8.67394C543.923 4.03326 540.152 0.262694 535.512 0.262694C530.774 0.262694 527.004 4.03326 527.004 8.67394ZM552.129 72H567.598V47.7331C567.598 40.482 571.659 36.5181 577.363 36.5181C583.937 36.5181 586.935 41.7388 586.935 47.5397V72H602.5V47.5397C602.5 33.811 595.926 21.9192 580.844 21.9192C574.753 21.9192 570.499 24.0462 567.598 27.8168V22.9827H552.129V72Z" fill="#F7F7FC"/>
</svg>
