<svg width="103" height="119" viewBox="0 0 103 119" fill="none" xmlns="http://www.w3.org/2000/svg">
<g filter="url(#filter0_d_436_7110)">
<circle r="28" transform="matrix(1 0 0 -1 44 39)" fill="#87C754"/>
<mask id="path-2-inside-1_436_7110" fill="white">
<path d="M55.3098 38.67L53.3745 40.6053L45.7019 32.9465V49.6504H42.9568V32.9465L35.298 40.619L33.349 38.67L44.3294 27.6896L55.3098 38.67Z"/>
</mask>
<path d="M55.3098 38.67L53.3745 40.6053L45.7019 32.9465V49.6504H42.9568V32.9465L35.298 40.619L33.349 38.67L44.3294 27.6896L55.3098 38.67Z" fill="#87C754"/>
<path d="M55.3098 38.67L59.1154 34.8644L62.921 38.67L59.1154 42.4756L55.3098 38.67ZM53.3745 40.6053L57.1801 44.4109L53.3779 48.2131L49.5723 44.4143L53.3745 40.6053ZM45.7019 32.9465H40.32V19.9697L49.5041 29.1375L45.7019 32.9465ZM45.7019 49.6504H51.0839V55.0323H45.7019V49.6504ZM42.9568 49.6504V55.0323H37.5749V49.6504H42.9568ZM42.9568 32.9465L39.1478 29.1443L48.3388 19.9368V32.9465H42.9568ZM35.298 40.619L39.107 44.4212L35.3014 48.2336L31.4924 44.4246L35.298 40.619ZM33.349 38.67L29.5434 42.4756L25.7378 38.67L29.5434 34.8644L33.349 38.67ZM44.3294 27.6896L40.5238 23.884L44.3294 20.0784L48.135 23.884L44.3294 27.6896ZM59.1154 42.4756L57.1801 44.4109L49.5689 36.7997L51.5042 34.8644L59.1154 42.4756ZM49.5723 44.4143L41.8997 36.7555L49.5041 29.1375L57.1767 36.7963L49.5723 44.4143ZM51.0839 32.9465V49.6504H40.32V32.9465H51.0839ZM45.7019 55.0323H42.9568V44.2684H45.7019V55.0323ZM37.5749 49.6504V32.9465H48.3388V49.6504H37.5749ZM46.7659 36.7487L39.107 44.4212L31.489 36.8168L39.1478 29.1443L46.7659 36.7487ZM31.4924 44.4246L29.5434 42.4756L37.1546 34.8644L39.1036 36.8134L31.4924 44.4246ZM29.5434 34.8644L40.5238 23.884L48.135 31.4952L37.1546 42.4756L29.5434 34.8644ZM48.135 23.884L59.1154 34.8644L51.5042 42.4756L40.5238 31.4952L48.135 23.884Z" fill="#FCFCFC" mask="url(#path-2-inside-1_436_7110)"/>
</g>
<defs>
<filter id="filter0_d_436_7110" x="-15" y="0.666666" width="118" height="118" filterUnits="userSpaceOnUse" color-interpolation-filters="sRGB">
<feFlood flood-opacity="0" result="BackgroundImageFix"/>
<feColorMatrix in="SourceAlpha" type="matrix" values="0 0 0 0 0 0 0 0 0 0 0 0 0 0 0 0 0 0 127 0" result="hardAlpha"/>
<feOffset dy="20.6667"/>
<feGaussianBlur stdDeviation="15.5"/>
<feComposite in2="hardAlpha" operator="out"/>
<feColorMatrix type="matrix" values="0 0 0 0 0.529412 0 0 0 0 0.780392 0 0 0 0 0.329412 0 0 0 0.25 0"/>
<feBlend mode="normal" in2="BackgroundImageFix" result="effect1_dropShadow_436_7110"/>
<feBlend mode="normal" in="SourceGraphic" in2="effect1_dropShadow_436_7110" result="shape"/>
</filter>
</defs>
</svg>
